<?xml version="1.0" encoding="utf-8"?>
<!-- Generator: Adobe Illustrator 21.0.2, SVG Export Plug-In . SVG Version: 6.00 Build 0)  -->
<svg version="1.1" id="图层_1" xmlns="http://www.w3.org/2000/svg" xmlns:xlink="http://www.w3.org/1999/xlink" x="0px" y="0px"
	 viewBox="0 0 1056 512" style="enable-background:new 0 0 1056 512;" xml:space="preserve">
<style type="text/css">
	.st0{fill:none;stroke:#81796F;stroke-width:0.75;stroke-linecap:round;stroke-miterlimit:10;}
	.st1{fill:none;stroke:#66605B;stroke-width:2;stroke-linecap:round;stroke-miterlimit:10;}
	.st2{fill:none;stroke:#66605B;stroke-width:0.75;stroke-linecap:round;stroke-miterlimit:10;}
	.st3{fill:none;stroke:#81796F;stroke-width:2;stroke-linecap:round;stroke-miterlimit:10;}
	.st4{fill:none;stroke:#81796F;stroke-linecap:round;stroke-miterlimit:10;}
	.st5{fill:#48453D;stroke:#66605B;stroke-linecap:round;stroke-miterlimit:10;}
	.st6{fill-rule:evenodd;clip-rule:evenodd;fill:#BABA77;}
	.st7{fill-rule:evenodd;clip-rule:evenodd;fill:#8CA574;}
	.st8{fill-rule:evenodd;clip-rule:evenodd;fill:#AFBB7B;}
	.st9{fill-rule:evenodd;clip-rule:evenodd;fill:#9BBA7B;}
	.st10{fill-rule:evenodd;clip-rule:evenodd;fill:#A0CE84;}
	.st11{fill:#C9CFA2;}
	.st12{fill-rule:evenodd;clip-rule:evenodd;fill:#C7DC7D;stroke:#5C8436;stroke-miterlimit:10;}
	.st13{fill-rule:evenodd;clip-rule:evenodd;fill:#4F694D;}
	.st14{fill-rule:evenodd;clip-rule:evenodd;fill:#91C078;}
	.st15{fill-rule:evenodd;clip-rule:evenodd;fill:#E1BED9;}
	.st16{fill-rule:evenodd;clip-rule:evenodd;fill:#ACD67B;}
	.st17{fill-rule:evenodd;clip-rule:evenodd;fill:#B6E29C;}
	.st18{fill-rule:evenodd;clip-rule:evenodd;fill:#A5E293;}
	.st19{fill:none;}
	.st20{fill:#C1E5AE;}
	.st21{fill-rule:evenodd;clip-rule:evenodd;fill:#78A078;}
	.st22{fill:none;stroke:#CCCCCC;stroke-width:0.5;stroke-miterlimit:10;}
	.st23{fill:#639840;stroke:#FFFFFF;stroke-miterlimit:10;}
	.st24{fill-rule:evenodd;clip-rule:evenodd;fill:#C7DC7D;stroke:#FFFFFF;stroke-width:0.5;stroke-miterlimit:10;}
	.st25{fill-rule:evenodd;clip-rule:evenodd;fill:#4F694D;stroke:#FFFFFF;stroke-width:0.5;stroke-miterlimit:10;}
	.st26{fill-rule:evenodd;clip-rule:evenodd;fill:#FFFFFF;}
	.st27{fill:#95B471;stroke:#FFFFFF;stroke-miterlimit:10;}
	.st28{fill-rule:evenodd;clip-rule:evenodd;fill:#DBC978;stroke:#FFFFFF;stroke-miterlimit:10;}
	.st29{fill-rule:evenodd;clip-rule:evenodd;fill:#F4DE79;stroke:#FFFFFF;stroke-miterlimit:10;}
	.st30{fill:#CFE0AA;stroke:#FFFFFF;stroke-width:0.5;stroke-miterlimit:10;}
	.st31{fill-rule:evenodd;clip-rule:evenodd;fill:#95B471;stroke:#FFFFFF;stroke-width:0.5;stroke-miterlimit:10;}
	.st32{fill-rule:evenodd;clip-rule:evenodd;fill:#F5C6FC;stroke:#FFFFFF;stroke-width:0.5;stroke-miterlimit:10;}
	.st33{fill-rule:evenodd;clip-rule:evenodd;fill:#ED9DF9;stroke:#FFFFFF;stroke-width:0.5;stroke-miterlimit:10;}
	.st34{fill-rule:evenodd;clip-rule:evenodd;fill:#AE86B5;}
	.st35{fill:#94D27C;stroke:#FFFFFF;stroke-width:0.5;stroke-miterlimit:10;}
	
		.st36{clip-path:url(#SVGID_2_);fill-rule:evenodd;clip-rule:evenodd;fill:#767C68;stroke:#FFFFFF;stroke-width:0.5;stroke-miterlimit:10;}
	.st37{fill-rule:evenodd;clip-rule:evenodd;fill:#B8D47D;stroke:#FFFFFF;stroke-width:0.5;stroke-miterlimit:10;}
	.st38{fill-rule:evenodd;clip-rule:evenodd;fill:#BADA94;stroke:#FFFFFF;stroke-width:0.5;stroke-miterlimit:10;}

	.limb-mouseover{ fill: none; stroke: #F15A24; stroke-width: 1.5; display:none }
</style>
<g id="大豆">
	<g id="根">
		<path class="st0" d="M515.9,393.3c-1.3,0.2-3.7-0.3-5-0.4c-1.9-0.2-3.9,0.3-5.6,1c-1.7,0.7-3.2,1.6-4.8,2.4
			c-2,0.9-4.1,1.6-6.3,2.1c-0.6,0.1-1.3,0.4-1.1,0.8"/>
		<path class="st0" d="M517.7,390.1c-1.3,0.2-2.6-0.3-4-0.4c-1.9-0.2-3.9,0.3-5.6,1c-1.7,0.7-3.2,1.6-4.8,2.4
			c-2,0.9-4.1,1.6-6.3,2.1c-0.6,0.1-1.3,0.4-1.1,0.8"/>
		<path class="st1" d="M514.8,398c-3.5,1.3-4.9,3.4-8,3.7c-3.1,0.3-6.3,0-9.2,0.9c-2.4,0.8-4.2,2.3-5.9,3.7c-1.8,1.5-3.5,3.1-5,4.8
			c-5.4,6.1-7.6,13.6-14.4,18.9c-2.1,1.6-4.6,2.9-6.8,4.5c-4.2,3-7.3,6.7-10.5,10.3c-4.2,4.7-8.7,9.4-13.5,13.8
			c-1.2,1.1-7.5,7.1-7,6.6"/>
		<path class="st0" d="M430.2,455.3c7.7-6.2,15.5-12.4,23.2-18.5c1.5-1.2,3-2.4,4.1-3.7c2.1-2.5,2.9-5.6,5.3-8
			c1.4-1.5,3.4-2.6,5.3-3.8c4.3-2.6,8.3-5.4,11.8-8.6c2.9-2.7,5.4-5.6,9-7.8c10.2-6.3,18.8-5.3,27.6-2.5"/>
		<path class="st2" d="M515.4,402.6c-7.7,0.9-14.1,4.5-21.1,7c-8.9,3.2-31.8,4.3-36,4.6"/>
		<path class="st0" d="M515.9,404.8c-4,1.7-9.1,3.4-13.2,5.1c-4.2,1.8-8.5,3.5-12.8,5.1c-2.4,0.9-5.1,1.8-7.8,1.5"/>
		<path class="st0" d="M478.7,428.2c0.9-2.1,2.7-4.1,5.1-5.5c1.6-1,3.6-1.7,5.1-2.8c1.9-1.3,3.1-3.1,4.8-4.5
			c1.6-1.3,3.7-2.2,5.7-3.2c5-2.3,11.1-4.6,16.8-5.7c-0.2,2.1-2.6,4.6-4.6,6.2c-2,1.6-4.5,2.8-6.8,4.1c-7.8,4.3-15,9.1-21.4,14.5
			c-1.3,1.1-2.5,2.1-3.9,3.1c-1.2,0.7-2.5,1.4-3.8,2c-5.7,2.8-11.1,5.9-16.2,9.3"/>
		<path class="st0" d="M516.3,409.1c-2.1,1-5.4,2.8-6.6,4.4c-2.9,3.7-6.5,7.1-10.8,10.1c-1.3,0.9-2.7,1.8-4,2.7
			c-9,6.5-13.6,15.5-21.4,22.8c-1.4,1.3-2.9,2.5-4.3,3.8c-7.5,7.3-10.2,16.5-12.6,25.4"/>
		<path class="st1" d="M516.4,414.3c-1.9,1.2-5,3.5-6.2,4.4c-5.1,3.5-10.3,7-14.6,11c-9.6,8.9-14.6,19.9-18.7,30.8
			c-0.9,2.3-1.7,4.7-1.5,7.1c0.1,1.4,0.6,2.7,1.2,4c1.5,3.3,3.8,6.5,6.6,9.3"/>
		<path class="st0" d="M517.7,417.7c0.2,3.6-3.3,7.1-6.5,9.8c-3.2,2.7-7.1,4.8-10.5,7.3c-6.1,4.4-11.1,16.3-10.7,16"/>
		<path class="st0" d="M518,427.1c-0.6,0.7,0.6,4.9-7.7,8.3c-1.6,0.7-3.5,1-5.4,1.5c-7.5,1.9-13.7,6.1-16.7,11.3"/>
		<path class="st1" d="M519.9,423.1c-0.7,2,2.4,3.8,4.4,5.3c7,5.2,14.6,10,22.6,14.3c11.5,6.2,24.4,11.6,32.5,20.2
			c1.4,1.5,2.7,3.1,4.3,4.4c1.7,1.4,3.9,2.4,5.9,3.6c3.1,1.9,5.9,4.1,8.1,6.5"/>
		<path class="st0" d="M518.3,417.2c-0.2,0.4,0.2,0.9,0.6,1.2c3.2,3.1,8.9,3.9,13.6,5.8c6.8,2.7,11.5,7.9,12.2,13.5"/>
		<path class="st0" d="M520.5,414.3c1.5,1.9,3.1,3.7,5.5,4.9c4,2.1,9.5,2.2,13.7,4.2c3.7,1.8,5.8,4.7,7.6,7.6
			c5.1,8.3,8.7,17,10.9,25.8"/>
		<path class="st3" d="M520.1,412.1c3.7,2.9,9.1,4.3,13.7,6.5c2.4,1.1,4.6,2.5,6.8,3.8c7.4,4.5,14.9,8.9,22.4,13.3
			c1.8,1.1,3.6,2.1,5.6,3.1c2.9,1.4,6,2.6,9.3,3.4c4.6,1.2,9.7,2,12.9,4.6c0.3,0.2,0.6,0.5,0.5,0.8c-0.1,0.3-0.4,0.4-0.7,0.6
			c-1.1,0.5-0.2,4.9-1.5,5.1"/>
		<path class="st0" d="M519.9,409.3c0.9,2,3.8,3.3,6.8,3.7c2.9,0.4,5.9,0.1,8.9,0.1c9.3,0.1,18.5,3.4,24.1,8.7"/>
		<path class="st0" d="M518.6,404.8c3.5,2.3,8.1,3.3,12.8,3.8c4.6,0.5,9.3,0.7,13.9,1.5c5.3,0.9,10.3,2.7,14.5,5.2
			c8.6,5.2,13.3,12.8,18.4,20c1.9,2.7,3.9,5.4,7.4,7c2.2,1.1,4.9,1.6,7,2.8c1.6,0.9,2.8,2.2,4,3.3c4.5,4.3,6.5,9.4,13,12.1"/>
		<path class="st0" d="M519.8,400.5c-0.2,0.8,0.8,1.4,1.8,1.8c5.2,2.1,11.2,3.2,15.6,6c2.1,1.3,3.8,3,5.4,4.6"/>
		<path class="st0" d="M519.6,399.2c3.5,2.5,8.2,3.8,12.9,4.7c4.7,1,9.5,1.7,13.9,3.1c10.6,3.6,17.2,11.2,23.5,18.2
			c5,5.6,10.3,11.2,17.9,15c1,0.5,2.1,1,3,1.6"/>
		<path class="st0" d="M518.9,396.5c1.1,2.7,4,4.6,6.7,6.4c2.1,1.4,4.3,2.8,6.5,4.1c2.9,1.7,6.1,3.2,8.2,5.7
			c0.9,1.1,1.5,2.3,1.9,3.5"/>
		<path class="st4" d="M515.8,395.6c-0.4,0.2-1.8,0.2-2.3,0.2c-4.5,0-8.8,1.5-12.9,2.9c-1.5,0.5-3.2,0.9-4.7,0.5"/>
		<path class="st3" d="M523.4,391.5c-0.5,1.7,2.7,3.4,4.4,4.6s3.9,1.9,6,2.6s4.3,1.5,5.9,2.8"/>
		<path class="st0" d="M524.5,389.1c5.1,0.9,9.7,3.2,12.6,6.3c1,1.1,1.9,2.3,3.3,3c2.1,1.1,4.9,1.2,7.6,1.3
			c3.6,0.2,7.3,0.7,10.5,1.9c1.3,0.5,2.6,1.2,3.8,1.8c3.2,1.7,6.4,3.4,9.6,5.1"/>
		<path class="st1" d="M521.5,403.9c14,4,29.5,5.1,43,10c1.5,0.6,3.1,1.2,4.3,2c0.9,0.6,1.7,1.3,2.5,2.1c3,2.8,6,5.6,9,8.5
			c1.9,1.8,3.8,3.6,5.2,5.6c1,1.4,1.7,2.8,2.5,4.3c5.5,9.5,16.2,17.1,28.2,22.8"/>
		<path class="st3" d="M518.7,432.1c3.2,2.4,5.9,5.2,8,8.1c1.5,2.1,2.8,4.6,1.9,6.9c-0.6,1.6-2.2,2.8-3.3,4.3
			c-2,2.5-2.4,5.5-2.7,8.5c-0.1,0.8-0.2,1.6,0.3,2.3c0.4,0.6,1.1,1.1,1.8,1.5c3.5,2.3,6.2,5.3,7.7,8.5c0.7,1.5,1.1,3,2.2,4.3
			c1,1.2,2.4,2.3,4.1,3"/>
		<path class="st0" d="M519.8,428.7c1.8,2.6,5.7,4,9.1,5.6s6.8,3.9,6.7,6.8c0,0.4-0.1,0.8,0.1,1.1c0.3,0.5,1,0.8,1.8,0.9
			c3.1,0.7,6.8,0.2,9.2,1.7c1.5,0.9,2.1,2.3,3.1,3.5c2.4,2.8,6.8,4.4,10.1,6.7c4.8,3.4,6.8,8.3,8.6,12.9"/>
		<path class="st0" d="M518.5,431c5.7,2.5,11.8,5.5,13.6,10.1c0.7,1.8,0.7,3.7,1.3,5.5c1.1,3.3,4.3,6,7.4,8.6
			c0.7,0.6,1.4,1.2,1.9,1.9c0.5,0.7,0.6,1.6,0.8,2.4c1.5,6.8,7.1,13.2,6.2,20.1"/>
		<path class="st0" d="M516.8,421.7c-0.8,1.6-1.6,3.3-2.4,4.9c-0.8,1.7-1.6,3.4-3,4.9c-2.8,3.1-7.6,4.9-10.8,7.9
			c-1.2,1.1-2.1,2.3-3,3.5c-3.5,4.7-6.3,9.7-7.8,15c-1.4,5.3-1.3,10.8,1.2,15.8"/>
		<path class="st0" d="M482.1,461.2c-0.9-2.3-0.3-4.8,1.2-6.9c1.4-2.1,3.6-4,5.8-5.7c5.7-4.4,12.2-8.6,20.2-10.5c1-0.2,2-0.5,3-0.8
			c3.7-1.3,6.1-4.4,5.7-7.3c0-0.2-0.1-0.4-0.3-0.4s-0.2,0.3,0,0.2"/>
		<path class="st5" d="M519.8,427.7c1.2-6.2,1.8-12.5,1.7-18.8c0-3.2-0.3-6.4,0.3-9.5c0.3-1.4,0.7-2.7,0.8-4.1
			c0.1-1.1-0.1-2.2,0.2-3.3c0.4-1.6,1.8-3,1.6-4.6c-2.9-0.4-5,0.1-7.7-0.1c0,0-1.6,0.1-2.2,0.1c0.6,1.2,1.1,2.5,1.1,2.5
			c0.8,1.6,0.2,5.3,0.3,7.2c0.1,2.4,0.2,4.8,0.2,7.3c0.1,3.1,0.2,6.2,0.7,9.3c0.2,1.5,0.5,2.9,0.7,4.4c0.4,4.7-1,10,1.2,14
			C519.2,430.7,519.6,429.2,519.8,427.7z"/>
		<path class="st5" d="M528,441.9c0.1-0.1,0.1-0.2,0.2-0.3c0.4-0.7,0.7-1.5,0.7-2.3c-0.1-0.8-0.6-1.6-1.4-2.1
			c-1.1-0.6-2.7-0.6-4.1-0.6c-0.7,0-1.3,0-1.9,0.2c-1.2,0.4-1.9,1.2-2.3,2.2c-1.1,0-0.9,0.9-1.1,1.6c-0.1,0.4-0.1,0.8,0.1,1.1
			c0.5,0.6,1.6,0.6,2.5,0.4c0.5-0.1,1-0.1,1.4,0c0.4,0.1,0.7,0.3,1,0.5c1.1,0.6,2.5,0.9,3.7,0.5C527.3,442.8,527.7,442.4,528,441.9z
			"/>
		<path class="st5" d="M533.5,442.9c-0.4-1.4-1.7-2.7-3.6-3.2c-0.7-0.2-1.4-0.3-2.2-0.4c-1-0.1-2.1-0.1-3,0.2
			c-1,0.4-1.7,1.1-1.9,1.9c-0.4,1.1-0.2,2.2-0.2,3.2c0.8,1.5,2.8,2.8,5.1,3.1c0.8,0.1,1.7,0.1,2.5,0c2.2-0.5,3.5-2.2,3.5-3.8
			C533.7,443.6,533.6,443.2,533.5,442.9z"/>
		<path class="st5" d="M470.7,430.7c-1.2,0-2.1-0.8-2.5-1.6c-0.4-0.9-0.4-1.9,0.3-2.7c0.4-0.4,0.9-0.7,1.4-0.9
			c1.4-0.6,3-0.9,4.6-0.8c1.6,0.2,3.1,0.8,4,1.8c0.4,0.5,0.6,1,0.7,1.5c0.1,1.5-1.6,2.8-3.6,3.2s-4.1,0.2-6-0.3"/>
		<path class="st5" d="M445.2,453.4c-0.6-0.2-1.3-0.1-1.8,0.2c-0.3,0.2-0.5,0.5-0.7,0.9c-0.3,0.6-0.4,1.2-0.1,1.7
			c0.3,0.6,1.1,1,1.5,1.5c1.7-0.2,3-1.2,3.2-2.4c0.1-0.5-0.1-1.1-0.7-1.4c-0.5-0.3-1.2-0.2-1.7-0.5"/>
		<path class="st5" d="M543.8,422.6c-0.3-0.1-0.6,0-0.9,0.1s-0.3,0.4-0.4,0.6c-0.2,0.8-0.1,1.6,0.4,2.3c0.5,0.6,1.2,1.1,2.1,1.4
			c0.6,0.2,1.2,0.4,1.8,0.5c0.6,0.1,1.1,0.3,1.7,0.4c0.1,0,0.3,0.1,0.4,0.1c0.4,0,0.7-0.3,0.9-0.6c0.4-0.7,0.6-1.4,0.7-2.1
			c0.1-0.4,0.1-0.8-0.1-1.2c-0.4-0.8-1.5-1.4-2.6-1.7c-1.2-0.2-2.4-0.2-3.6-0.1c-0.5,0-1.1,0.2-1.1,0.5"/>
		<path class="st5" d="M569.4,416.9c-0.4,0-0.8,0.2-0.9,0.5c-0.2,0.3-0.1,0.6-0.1,0.8c0,0.2,0,0.3,0.1,0.5c0.1,0.2,0.3,0.4,0.5,0.6
			c0.5,0.5,1.1,1.1,2,1.4c0.9,0.3,2.1,0.1,2.9-0.4c0.8-0.5,1.2-1.2,1.2-2c0-0.1,0-0.3-0.1-0.4c-0.1-0.1-0.3-0.2-0.4-0.3
			c-1.7-0.8-3.8-1.1-5.8-0.8c-0.1,0.2-0.1,0.3,0,0.5"/>
		<path class="st5" d="M528.7,469.4c-0.7,0.2-1,0.9-0.7,1.4c0.3,0.5,0.9,0.9,1.5,1.2c0.6,0.3,1.2,0.6,1.9,0.7s1.5,0,2-0.4
			c0.6-0.4,0.6-1.1,0.6-1.8c0-0.4-0.1-0.8-0.5-1.1c-0.2-0.1-0.5-0.2-0.8-0.2c-0.8-0.1-1.7-0.1-2.5-0.1c-0.4,0-0.9,0-1.3,0.2
			c-0.4,0.2-0.6,0.5-0.4,0.8"/>
	</g>
	<g id="叶柄-右">
		<path class="st6" d="M525.1,107.5c0,0,17.3-11.4,26.9-15.2c9.6-3.8,17-7.4,31.1-9.9c14.1-2.6,17.7-2.4,23.1-2.8
			c5.4-0.4-20.4,2.7-31.1,6.2c-12.1,3.9-19.4,7.8-27.1,11.5c-13.5,6.5-16.9,10.7-16.9,10.7l-5.9,5.6L525.1,107.5z"/>
		<path class="st6" d="M520.8,171.1c0,0,17-11.1,26.5-14.8c9.5-3.7,16.7-7.1,30.4-9.4c13.7-2.3,17.3-2.1,22.5-2.4
			c5.3-0.3-19.9,2.4-30.4,5.7c-11.9,3.7-19,7.5-26.6,11c-13.3,6.3-16.7,10.4-16.7,10.4l-5.8,5.5L520.8,171.1z"/>
		<path class="st6" d="M517.9,217.4c0,0,16.4-11.4,25.6-15.2c9.2-3.8,16.2-7.4,29.5-9.9c13.4-2.6,16.8-2.4,21.9-2.8
			c5.1-0.4-19.4,2.7-29.5,6.2c-11.5,3.9-18.4,7.8-25.7,11.5c-12.9,6.5-16.1,10.7-16.1,10.7l-5.6,5.6L517.9,217.4z"/>
		<path class="st6" d="M522,304.2c0,0,16.6-11.4,25.9-15.2c9.3-3.8,16.4-7.4,29.9-9.9c13.5-2.6,17-2.4,22.2-2.8
			c5.2-0.4-19.6,2.7-29.9,6.2c-11.6,3.9-18.6,7.8-26,11.5c-13,6.5-16.3,10.7-16.3,10.7l-5.7,5.6L522,304.2z"/>
		<path class="st6" d="M525.1,339.8c0,0,17.3-11.5,26.9-15.3c9.6-3.8,17-7.4,31.1-10c14.1-2.6,17.7-2.4,23.1-2.8
			c5.4-0.4-20.4,2.8-31.1,6.2c-12.1,3.9-19.4,7.8-27.1,11.6c-13.5,6.6-16.9,10.8-16.9,10.8l-5.9,5.6L525.1,339.8z"/>
	</g>
	<g id="叶子-右">
		<g>
			<path class="st7" d="M615.6,281.5c-4.4-2.1-9.2-5.2-14.5-5.2c-0.7,1-1.1,2.4-0.8,3.5c1,0,9.7,0.2,9.1,1.3
				c-4.9,8.7,6.2,18.3,16.7,19.4c12.1,1.3,26.4-4.4,37.5,1.9c-7.4-11.1-13.2-24-29.5-28.9c-10-3-27.7,2.9-20.6,5.9
				c9.6,4.1,13.7,5.1,23.3,3.5c-2.5,1.2-5.6,1.7-8.3,2.7c6.3,2.6,10.5,6,17.4,8.5c-10.8-3.9-17.1-7.4-26.1-9.8
				c0.7,2.2,0.3,4.9,0.2,7C620.2,287.8,617.7,284.5,615.6,281.5L615.6,281.5z"/>
			<path class="st8" d="M604.4,268.9c-3.4,2-8.1,3.9-9.9,6.8c0.7,0.6,1.9,1.1,3,1.2c0.3-0.5,3.5-5.3,4.3-4.7
				c6.7,4.7,19.4,0.7,24-4.8c5.2-6.3,4.7-15.5,14.4-20.2c-13.1,1.5-27.3,1.8-37.4,9.6c-6.3,4.8-6.5,15.9-1.3,12.7
				c7.1-4.4,9.5-6.4,11.2-12c0.3,1.6-0.3,3.5-0.2,5.2c4.6-2.9,9.3-4.4,13.9-7.6c-7.4,5.1-12.8,7.7-18.2,12.1
				c2.3,0.1,4.7,0.9,6.8,1.5C611.9,267.7,608,268.4,604.4,268.9L604.4,268.9z"/>
			<path class="st9" d="M627,270.1c-4.5-0.1-9.9-0.7-14.1,0.7c-0.1,0.8,0.4,1.8,1.1,2.5c0.8-0.3,7.8-2.6,7.9-1.8
				c0.6,7,14.1,10,23.1,7.7c10.2-2.6,18.7-10.4,30.6-9.5c-11.5-5.1-22.6-11.8-38-10.3c-9.5,0.9-20.4,9.8-13.3,9.7
				c9.7-0.1,13.5-0.6,20.2-4.4c-1.4,1.5-3.6,2.7-5.1,4.1c6.3-0.1,11.4,0.9,18.1,0.5c-10.6,0.6-17.3,0.1-25.7,1.1
				c1.6,1.2,2.7,3.1,3.7,4.5C633.9,272.9,630.3,271.5,627,270.1L627,270.1z"/>
		</g>
		<g>
			<path class="st8" d="M588.2,201.9c-3.6-3.3-7.2-7.8-12.2-9.4c-1,0.7-1.7,1.9-1.8,3.1c0.9,0.3,9.2,3.2,8.3,4
				c-7.3,6.8,0.3,19.2,10,23.5c11.1,4.9,26.5,3.9,35.1,13.3c-3.6-12.8-5.2-26.9-19.2-36.5c-8.6-6-27.3-5.7-21.4-0.7
				c7.9,6.8,11.5,9.1,21.1,10.4c-2.7,0.4-5.9-0.1-8.7,0.1c5.2,4.4,8.2,8.9,14,13.4c-9.1-7.1-14-12.3-21.9-17.4
				c0,2.3-1.2,4.7-1.9,6.7C590.6,209.3,589.3,205.5,588.2,201.9L588.2,201.9z"/>
			<path class="st9" d="M581.4,186.5c-3.9,0.8-8.8,1.2-11.4,3.4c0.5,0.8,1.5,1.7,2.5,2.1c0.5-0.4,4.9-4,5.5-3.2
				c4.9,6.5,18.3,6.6,24.3,2.8c6.9-4.4,9.2-13.3,19.9-14.8c-12.9-2.5-26.5-6.6-38.6-2.3c-7.4,2.7-11.1,13.1-5.1,11.7
				c8.1-2,11-3.2,14.3-8c-0.2,1.7-1.3,3.2-1.7,4.9c5.2-1.3,10.2-1.4,15.6-3c-8.6,2.6-14.5,3.4-21,6c2.1,0.8,4.2,2.3,6,3.5
				C588.9,187.7,585,187.1,581.4,186.5L581.4,186.5z"/>
			<path class="st8" d="M602.6,194.6c-4.3-1.5-9.2-3.7-13.7-3.6c-0.3,0.8-0.2,1.9,0.3,2.7c0.8,0,8.2-0.1,8,0.7
				c-1.6,6.9,10.4,13.9,19.6,14.4c10.5,0.6,21-4.2,32,0.3c-9.4-8.3-17.9-18.1-33-21.4c-9.3-2-22.5,3.1-15.7,5.2
				c9.2,2.8,13,3.5,20.6,2c-1.7,1-4.2,1.5-6.2,2.4c6,1.8,10.5,4.3,17.1,6c-10.2-2.7-16.5-5.2-24.8-6.8c1.2,1.6,1.7,3.7,2.2,5.4
				C608.2,199.3,605.2,196.9,602.6,194.6L602.6,194.6z"/>
		</g>
		<g>
			<path class="st9" d="M610,154.1c-3.9-2.7-8.1-6.6-13.2-7.5c-0.9,0.8-1.4,2.1-1.3,3.2c1,0.1,9.4,1.8,8.6,2.8
				c-6.2,7.7,3,18.7,13,21.6c11.5,3.2,26.4,0.1,36.1,8c-5.3-12-8.8-25.5-23.8-32.9c-9.2-4.6-27.4-1.7-21,2.3
				c8.7,5.5,12.5,7.2,22,7.2c-2.6,0.8-5.7,0.7-8.5,1.3c5.7,3.6,9.2,7.6,15.5,11.1c-9.9-5.6-15.3-10-23.8-13.9c0.3,2.2-0.5,4.8-1,6.8
				C613.4,161,611.5,157.5,610,154.1L610,154.1z"/>
			<path class="st7" d="M623,145c-4.4-0.8-9.5-2.4-13.8-1.6c-0.2,0.8,0,1.8,0.7,2.6c0.8-0.2,8-1.3,7.9-0.4
				c-0.6,6.9,12.1,12.1,21.1,11.3c10.3-0.9,19.9-7,31.3-4.2c-10.3-6.8-20-15.1-35.2-16.3c-9.4-0.7-21.5,6.2-14.5,7.2
				c9.4,1.5,13.2,1.6,20.3-0.9c-1.6,1.2-3.9,2-5.7,3.2c6.2,0.9,10.9,2.7,17.5,3.5c-10.4-1.2-16.8-2.8-25.1-3.2
				c1.4,1.4,2.1,3.4,2.9,5C629.2,148.8,625.9,146.9,623,145L623,145z"/>
			<path class="st8" d="M601.2,140c-3.7,1.3-8.5,2.4-10.7,4.9c0.6,0.7,1.7,1.4,2.8,1.7c0.4-0.5,4.2-4.6,4.9-3.9
				c5.7,5.6,18.8,3.9,24.1-0.7c6.1-5.3,7.1-14.3,17.3-17.2c-12.9-0.7-26.8-2.7-37.9,3.2c-6.9,3.7-8.9,14.4-3.4,12.1
				c7.6-3.1,10.3-4.6,12.8-9.8c0,1.6-0.8,3.3-1,5c4.9-2,9.7-2.8,14.8-5.1c-8,3.7-13.7,5.4-19.6,8.8c2.2,0.5,4.4,1.7,6.3,2.5
				C608.7,140.2,604.8,140.2,601.2,140L601.2,140z"/>
		</g>
		<path class="st7" d="M533.4,71.1c-3.6,3.2-8.5,6.6-10.4,10.7c0.7,0.7,1.9,1.1,3.1,1c0.3-0.8,3.8-7.5,4.6-7
			c6.7,4.8,20.1-2.7,25.1-10.8c5.6-9.3,5.4-21.1,15.6-29c-13.6,4.4-28.3,7.5-39.1,19.6c-6.7,7.5-7.3,22-1.8,16.8
			c7.5-7,10-10.1,12-17.8c0.3,2.1-0.4,4.6-0.3,6.8c4.8-4.6,9.7-7.5,14.7-12.6c-7.8,8-13.5,12.5-19.2,19.3c2.4-0.3,4.9,0.3,6.9,0.7
			C541.3,68.3,537.2,69.8,533.4,71.1L533.4,71.1z"/>
		<g>
			<path class="st9" d="M610.1,319.1c-3.9-2.2-8.1-5.5-13-5.9c-0.7,0.8-1.2,2.1-1,3.2c0.9,0.1,9,0.9,8.3,1.9
				c-5.2,7.7,4.3,17.3,14,19.2c11.1,2.1,24.8-2,34.5,4.6c-6-10.8-10.4-23.2-25-29c-9.1-3.6-25.9,0.6-19.5,3.9
				c8.6,4.5,12.3,5.8,21.3,5c-2.4,0.9-5.3,1.2-7.8,1.9c5.6,2.9,9.3,6.4,15.4,9.2c-9.7-4.5-15.2-8.2-23.4-11.1
				c0.5,2.1-0.1,4.5-0.3,6.5C613.9,325.3,611.8,322.1,610.1,319.1L610.1,319.1z"/>
			<path class="st9" d="M600.7,306.6c-3.3,1.6-7.7,3-9.6,5.5c0.6,0.6,1.7,1.2,2.7,1.4c0.3-0.5,3.6-4.6,4.3-4
				c5.8,4.8,17.9,2.2,22.6-2.6c5.3-5.5,5.5-14,14.8-17.6c-12.2,0.4-25.4-0.4-35.3,6.1c-6.2,4-7.2,14.2-2.2,11.6
				c6.9-3.5,9.3-5.2,11.2-10.3c0.2,1.5-0.5,3.2-0.5,4.8c4.5-2.3,8.9-3.4,13.5-6c-7.2,4.1-12.4,6.2-17.7,9.9c2.1,0.3,4.3,1.2,6.1,1.9
				C607.8,306.1,604.1,306.4,600.7,306.6L600.7,306.6z"/>
			<path class="st8" d="M621.6,309.5c-4.2-0.4-9.1-1.4-13.1-0.4c-0.1,0.8,0.2,1.7,0.9,2.4c0.7-0.2,7.4-1.8,7.4-1
				c0,6.5,12.3,10.4,20.7,8.9c9.6-1.7,18.1-8.2,29-6.5c-10.2-5.6-20-12.6-34.4-12.4c-8.8,0.1-19.6,7.5-13.1,8
				c8.9,0.6,12.5,0.5,19-2.5c-1.4,1.3-3.5,2.2-5.1,3.4c5.8,0.4,10.4,1.7,16.7,1.9c-9.8-0.3-16-1.2-23.8-0.9c1.4,1.2,2.3,3,3.1,4.4
				C627.7,312.5,624.5,311,621.6,309.5L621.6,309.5z"/>
		</g>
		<g>
			<path class="st9" d="M603.6,89.5c-3.8-2.6-7.8-6.4-12.8-7.3c-0.8,0.8-1.4,2.1-1.3,3.1c0.9,0.1,9.1,1.8,8.4,2.7
				c-6,7.4,2.9,18.2,12.6,20.9c11.2,3.1,25.6,0.1,35,7.8c-5.2-11.7-8.6-24.7-23.1-32c-9-4.5-26.6-1.7-20.4,2.3
				c8.4,5.4,12.1,7,21.4,7c-2.5,0.7-5.6,0.7-8.2,1.3c5.5,3.5,8.9,7.3,15,10.8c-9.6-5.4-14.9-9.7-23.1-13.5c0.3,2.1-0.5,4.6-0.9,6.6
				C606.9,96.1,605.1,92.7,603.6,89.5L603.6,89.5z"/>
			<path class="st10" d="M595,75.8c-3.6,1.3-8.2,2.4-10.4,4.8c0.5,0.7,1.6,1.4,2.7,1.6c0.4-0.5,4.1-4.4,4.8-3.8
				c5.5,5.5,18.2,3.8,23.4-0.7c6-5.1,6.9-13.9,16.8-16.7c-12.6-0.6-26-2.7-36.8,3.1c-6.7,3.5-8.7,13.9-3.3,11.7
				c7.4-3,10-4.5,12.4-9.5c0,1.6-0.8,3.2-1,4.8c4.8-2,9.4-2.7,14.4-5c-7.8,3.6-13.3,5.2-19,8.5c2.1,0.5,4.3,1.6,6.1,2.5
				C602.3,75.9,598.5,75.9,595,75.8L595,75.8z"/>
			<path class="st8" d="M616.2,80.6c-4.3-0.8-9.2-2.3-13.4-1.6c-0.2,0.8,0,1.8,0.7,2.5c0.8-0.2,7.8-1.2,7.7-0.4
				c-0.6,6.7,11.7,11.7,20.5,11c10-0.9,19.3-6.8,30.4-4c-10-6.6-19.4-14.7-34.1-15.8c-9.1-0.7-20.8,6-14.1,7
				c9.1,1.4,12.8,1.6,19.7-0.9c-1.5,1.2-3.8,2-5.5,3.1c6,0.9,10.6,2.7,17,3.4c-10.1-1.2-16.3-2.7-24.4-3.1c1.4,1.4,2.1,3.3,2.8,4.8
				C622.2,84.2,619,82.4,616.2,80.6L616.2,80.6z"/>
		</g>
		<g>
			<path class="st11" d="M524.4,69.6c-0.1-0.2-0.2-0.4-0.3-0.6v12.1c0.1,0,0.2,0,0.4,0C525.7,77.8,524.7,73.3,524.4,69.6z"/>
			<path class="st11" d="M524.8,59.6c1.3-1.2,2.4-2.9,3.8-3.9c-3.4,5.3-3.6,8.4-3.2,16.3c0.3,5.8,8.5-2.5,8.9-10.3
				c0.5-11-5-19.8-10.2-28.4V53C524.4,55.1,524.7,57.2,524.8,59.6z"/>
		</g>
	</g>
	<g id="豆荚">
		<g>
			<path class="st12" d="M547.7,248.8c-5.7,2.6-11.1,1.5-18.4-4c-6.5-4.9-6.5-12.4-6.5-12.4s1.9-1.2,2.6,0.2
				c0.7,1.4,0.4,0.9,2.5,1.2c0.6,0.1,1.1,0.4,1.6,0.8c0.4,0.2,0.8,0.5,1.1,0.8c0.7,0.7,1.1,1.4,1.2,2.1c0.3,0.3,0.6,0.6,1,0.8
				c0.1,0.1,0.2,0.2,0.4,0.2c1.4-0.3,3.4,0.4,4.8,1.7c1,1,1.5,2.1,1.5,3c0.1,0.1,0.2,0.1,0.3,0.2c0.6,0.3,1,0.5,1.5,0.7
				c0.9,0,1.8,0.3,2.4,0.9c0.2,0.1,0.3,0.3,0.4,0.5c0.6,0.3,1.2,0.7,2.1,1.3c1,0.7,1.3,0.6,2.2,0.7
				C548.7,247.4,550.1,247.7,547.7,248.8z"/>
			<path class="st13" d="M522.5,237.2c0,0,0.7-0.8,1.7-2.2c0.6-0.8,2.1,1.3,2.8,1.7c0.3,0.1,0-2.7,0-2.4c0,0,1.1-0.5,2-0.3
				c0.8,0.1-1.5-0.9-1.8-1.6c-0.7-1.7-2-2-3.1-2.5c-1.1-0.5-0.6,0-1.5-1.4c-0.6-1-1.1-1.6-2.7-1.7c-3.9-0.2-4.4-0.1-4.4-0.1
				s0.9,0.7,1.7,0.8c2.5,0.3,3.1-0.1,3.9,1.2c0.7,1.3,1.2,0.5,0.5,2.7c-0.5,1.5,0.1,2.4,0.7,3.5
				C522.9,236.6,522.5,237.2,522.5,237.2z"/>
		</g>
		<g>
			<path class="st12" d="M535.6,257.3c-6.3,0-10.7-3.2-15-11.3c-3.9-7.2-0.8-14-0.8-14s2.3-0.3,2.3,1.3c0.1,1.6,0,1,1.8,2.1
				c0.5,0.3,0.8,0.8,1.1,1.4c0.3,0.4,0.5,0.8,0.7,1.2c0.4,0.9,0.4,1.7,0.3,2.4c0.1,0.4,0.3,0.8,0.5,1.2c0.1,0.1,0.1,0.2,0.2,0.4
				c1.4,0.3,2.9,1.7,3.6,3.5c0.5,1.3,0.5,2.5,0.1,3.4c0.1,0.1,0.1,0.2,0.2,0.3c0.4,0.5,0.7,0.9,1,1.3c0.8,0.4,1.5,1,1.8,1.8
				c0.1,0.2,0.1,0.4,0.2,0.6c0.4,0.6,0.8,1.1,1.4,2.1c0.6,1,1,1.1,1.8,1.5C537.1,256.5,538.2,257.3,535.6,257.3z"/>
			<path class="st13" d="M517.5,236.2c0,0,1-0.4,2.5-1.3c0.9-0.5,1.3,2,1.9,2.7c0.2,0.2,1.2-2.5,1-2.2c0,0,1.2,0.1,1.9,0.5
				c0.7,0.5-1-1.4-0.9-2.2c0.1-1.8-1-2.7-1.7-3.6c-0.7-0.9-0.6-0.3-0.8-1.9c-0.2-1.2-0.4-1.9-1.8-2.6c-3.5-1.8-3.9-1.9-3.9-1.9
				s0.6,1,1.2,1.4c2.2,1.3,2.9,1.2,3,2.7s0.9,1-0.7,2.6c-1.1,1.2-0.9,2.2-0.9,3.5C518.2,235.8,517.5,236.2,517.5,236.2z"/>
		</g>
		<g>
			<path class="st12" d="M544.2,233.6c-2.9,2.4-6.2,2.6-11.3,0.4c-4.6-1.9-5.7-6.3-5.7-6.3s0.9-1,1.6-0.3c0.6,0.7,0.4,0.4,1.6,0.3
				c0.4,0,0.7,0.1,1,0.3c0.3,0.1,0.5,0.2,0.8,0.3c0.5,0.3,0.9,0.6,1,1c0.2,0.1,0.4,0.3,0.7,0.3c0.1,0,0.2,0.1,0.2,0.1
				c0.8-0.4,2-0.3,3.1,0.3c0.7,0.4,1.2,1,1.4,1.5c0.1,0,0.1,0,0.2,0c0.4,0.1,0.7,0.1,1,0.2c0.5-0.1,1.1-0.1,1.5,0.2
				c0.1,0.1,0.2,0.1,0.3,0.2c0.4,0.1,0.8,0.2,1.4,0.4c0.7,0.2,0.8,0.1,1.4,0C544.6,232.7,545.4,232.6,544.2,233.6z"/>
			<path class="st13" d="M527.7,230.7c0,0,0.3-0.6,0.7-1.5c0.2-0.5,1.4,0.4,1.9,0.5c0.2,0-0.4-1.6-0.4-1.4c0,0,0.6-0.4,1.1-0.5
				c0.5,0-1-0.3-1.3-0.7c-0.7-0.9-1.5-0.9-2.2-1c-0.7-0.1-0.4,0.1-1.1-0.6c-0.5-0.5-0.9-0.7-1.8-0.6c-2.3,0.5-2.6,0.6-2.6,0.6
				s0.6,0.3,1.1,0.2c1.5-0.2,1.8-0.5,2.4,0.1c0.6,0.6,0.8,0.1,0.7,1.5c-0.1,1,0.4,1.4,0.9,2C527.9,230.2,527.7,230.7,527.7,230.7z"
				/>
		</g>
		<g>
			<path class="st12" d="M537,327.3c-3.7,1-6.7-0.2-10.6-4.2c-3.4-3.6-2.7-8-2.7-8s1.3-0.5,1.6,0.4c0.3,0.9,0.2,0.6,1.4,1
				c0.3,0.1,0.6,0.3,0.8,0.7c0.2,0.2,0.4,0.4,0.6,0.6c0.4,0.5,0.5,0.9,0.5,1.4c0.1,0.2,0.3,0.4,0.5,0.6c0.1,0.1,0.1,0.1,0.2,0.2
				c0.9,0,2,0.5,2.7,1.5c0.5,0.7,0.7,1.4,0.6,1.9c0.1,0,0.1,0.1,0.2,0.1c0.3,0.2,0.6,0.4,0.8,0.6c0.5,0.1,1,0.4,1.3,0.8
				c0.1,0.1,0.1,0.2,0.2,0.3c0.3,0.3,0.7,0.5,1.1,1c0.5,0.5,0.7,0.5,1.3,0.6C537.8,326.6,538.6,326.8,537,327.3z"/>
			<path class="st13" d="M523.1,317.9c0,0,0.5-0.4,1.2-1.1c0.4-0.4,1.1,1,1.5,1.3c0.1,0.1,0.3-1.6,0.2-1.4c0,0,0.7-0.2,1.2,0
				c0.5,0.2-0.8-0.7-0.9-1.1c-0.3-1.1-1-1.4-1.6-1.8c-0.6-0.4-0.4-0.1-0.8-1c-0.3-0.7-0.5-1-1.5-1.2c-2.3-0.5-2.6-0.5-2.6-0.5
				s0.5,0.5,0.9,0.6c1.5,0.4,1.9,0.3,2.2,1.1c0.3,0.8,0.7,0.4,0,1.7c-0.5,0.8-0.1,1.4,0.1,2.2C523.5,317.6,523.1,317.9,523.1,317.9z
				"/>
		</g>
		<g>
			<path class="st12" d="M547.8,204.3c-6.1,1.6-11.2-0.3-17.5-6.9c-5.6-5.9-4.5-13.3-4.5-13.3s2.1-0.9,2.6,0.6
				c0.5,1.5,0.3,0.9,2.3,1.6c0.6,0.2,1,0.6,1.4,1.1c0.4,0.3,0.7,0.6,1,1c0.6,0.8,0.9,1.6,0.9,2.3c0.2,0.4,0.5,0.7,0.8,1
				c0.1,0.1,0.2,0.2,0.3,0.3c1.5,0,3.3,0.9,4.5,2.4c0.9,1.1,1.2,2.3,1,3.2c0.1,0.1,0.2,0.1,0.3,0.2c0.5,0.4,0.9,0.7,1.3,0.9
				c0.9,0.2,1.7,0.6,2.2,1.3c0.1,0.2,0.2,0.4,0.3,0.5c0.6,0.4,1.1,0.9,1.9,1.6c0.9,0.8,1.2,0.8,2.1,1
				C549,203.1,550.3,203.6,547.8,204.3z"/>
			<path class="st13" d="M524.8,188.8c0,0,0.8-0.7,2.1-1.9c0.7-0.7,1.8,1.6,2.5,2.1c0.2,0.2,0.5-2.7,0.4-2.4c0,0,1.2-0.3,2,0
				c0.8,0.3-1.3-1.1-1.5-1.8c-0.4-1.8-1.7-2.3-2.6-3c-1-0.7-0.6-0.1-1.3-1.7c-0.5-1.1-0.9-1.7-2.4-2.1c-3.8-0.8-4.3-0.8-4.3-0.8
				s0.8,0.8,1.6,1c2.5,0.7,3.1,0.4,3.6,1.8c0.5,1.4,1.2,0.7,0,2.7c-0.8,1.4-0.2,2.4,0.1,3.6C525.3,188.2,524.8,188.8,524.8,188.8z"
				/>
		</g>
		<g>
			<path class="st12" d="M543.3,186c-3.2,2.1-6.4,2-11.3-0.6c-4.4-2.3-5.1-6.8-5.1-6.8s1-0.9,1.6-0.2c0.6,0.8,0.3,0.5,1.6,0.5
				c0.4,0,0.7,0.1,1,0.3c0.3,0.1,0.5,0.2,0.8,0.4c0.5,0.3,0.8,0.7,0.9,1.1c0.2,0.2,0.4,0.3,0.6,0.4c0.1,0,0.2,0.1,0.2,0.1
				c0.8-0.3,2-0.1,3,0.5c0.7,0.5,1.1,1.1,1.2,1.6c0.1,0,0.1,0,0.2,0.1c0.4,0.1,0.7,0.2,0.9,0.3c0.5-0.1,1.1,0,1.5,0.3
				c0.1,0.1,0.2,0.2,0.3,0.2c0.4,0.1,0.8,0.3,1.4,0.6c0.6,0.3,0.8,0.2,1.4,0.2C543.8,185.1,544.6,185.1,543.3,186z"/>
			<path class="st13" d="M527.2,181.5c0,0,0.3-0.5,0.8-1.5c0.3-0.5,1.4,0.6,1.9,0.7c0.2,0.1-0.2-1.6-0.2-1.4c0,0,0.6-0.4,1.1-0.4
				c0.5,0-1-0.4-1.2-0.8c-0.6-0.9-1.4-1-2.1-1.2c-0.7-0.2-0.4,0.1-1.1-0.7c-0.5-0.5-0.8-0.8-1.8-0.7c-2.3,0.3-2.6,0.4-2.6,0.4
				s0.6,0.3,1.1,0.3c1.5-0.1,1.9-0.3,2.4,0.4c0.6,0.7,0.8,0.2,0.5,1.6c-0.2,1,0.3,1.4,0.7,2C527.4,181.1,527.2,181.5,527.2,181.5z"
				/>
		</g>
		<g>
			<path class="st12" d="M535,237.4c-3.7,1-6.7-0.2-10.6-4.2c-3.4-3.6-2.7-8-2.7-8s1.3-0.5,1.6,0.4c0.3,0.9,0.2,0.6,1.4,1
				c0.3,0.1,0.6,0.3,0.8,0.7c0.2,0.2,0.4,0.4,0.6,0.6c0.4,0.5,0.5,0.9,0.5,1.4c0.1,0.2,0.3,0.4,0.5,0.6c0.1,0.1,0.1,0.1,0.2,0.2
				c0.9,0,2,0.5,2.7,1.5c0.5,0.7,0.7,1.4,0.6,1.9c0.1,0,0.1,0.1,0.2,0.1c0.3,0.2,0.6,0.4,0.8,0.6c0.5,0.1,1,0.4,1.3,0.8
				c0.1,0.1,0.1,0.2,0.2,0.3c0.3,0.3,0.7,0.5,1.1,1c0.5,0.5,0.7,0.5,1.3,0.6C535.7,236.7,536.5,237,535,237.4z"/>
			<path class="st13" d="M521.1,228.1c0,0,0.5-0.4,1.2-1.1c0.4-0.4,1.1,1,1.5,1.3c0.1,0.1,0.3-1.6,0.2-1.4c0,0,0.7-0.2,1.2,0
				c0.5,0.2-0.8-0.7-0.9-1.1c-0.3-1.1-1-1.4-1.6-1.8c-0.6-0.4-0.4-0.1-0.8-1c-0.3-0.7-0.5-1-1.5-1.2c-2.3-0.5-2.6-0.5-2.6-0.5
				s0.5,0.5,0.9,0.6c1.5,0.4,1.9,0.3,2.2,1.1c0.3,0.8,0.7,0.4,0,1.7c-0.5,0.8-0.1,1.4,0.1,2.2C521.4,227.7,521.1,228.1,521.1,228.1z
				"/>
		</g>
		<g>
			<path class="st12" d="M544.5,318.7c-2.9,3.2-6.2,3.5-11.3,0.8c-4.6-2.5-5.8-8.3-5.8-8.3s0.9-1.4,1.6-0.4c0.6,0.9,0.4,0.6,1.6,0.4
				c0.4-0.1,0.7,0.1,1,0.3c0.3,0.1,0.5,0.2,0.8,0.4c0.5,0.4,0.9,0.8,1.1,1.4c0.2,0.2,0.5,0.3,0.7,0.4c0.1,0,0.2,0.1,0.2,0.1
				c0.8-0.5,2-0.4,3.1,0.3c0.7,0.5,1.2,1.3,1.4,2c0.1,0,0.1,0,0.2,0.1c0.4,0.1,0.7,0.2,1,0.2c0.5-0.2,1.1-0.1,1.5,0.2
				c0.1,0.1,0.2,0.2,0.3,0.3c0.4,0.1,0.8,0.3,1.4,0.6c0.7,0.3,0.8,0.2,1.4,0C544.9,317.5,545.7,317.4,544.5,318.7z"/>
			<path class="st13" d="M528,315.1c0,0,0.3-0.8,0.7-2.1c0.2-0.7,1.4,0.6,1.9,0.7c0.2,0-0.4-2.1-0.4-1.9c0,0,0.6-0.6,1.1-0.7
				c0.5-0.1-1-0.4-1.3-0.9c-0.7-1.2-1.5-1.1-2.2-1.3c-0.7-0.2-0.4,0.1-1.1-0.8c-0.5-0.7-0.9-1-1.8-0.7c-2.3,0.7-2.6,0.9-2.6,0.9
				s0.6,0.3,1.1,0.2c1.5-0.3,1.8-0.7,2.4,0.1c0.6,0.9,0.8,0.1,0.7,2c-0.1,1.3,0.5,1.8,1,2.6C528.2,314.5,528,315.1,528,315.1z"/>
		</g>
		<g>
			<path class="st12" d="M538.9,357.9c-3.7,1-6.7-0.2-10.6-4.2c-3.4-3.6-2.7-8-2.7-8s1.3-0.5,1.6,0.4c0.3,0.9,0.2,0.6,1.4,1
				c0.3,0.1,0.6,0.3,0.8,0.7c0.2,0.2,0.4,0.4,0.6,0.6c0.4,0.5,0.5,0.9,0.5,1.4c0.1,0.2,0.3,0.4,0.5,0.6c0.1,0.1,0.1,0.1,0.2,0.2
				c0.9,0,2,0.5,2.7,1.5c0.5,0.7,0.7,1.4,0.6,1.9c0.1,0,0.1,0.1,0.2,0.1c0.3,0.2,0.6,0.4,0.8,0.6c0.5,0.1,1,0.4,1.3,0.8
				c0.1,0.1,0.1,0.2,0.2,0.3c0.3,0.3,0.7,0.5,1.1,1c0.5,0.5,0.7,0.5,1.3,0.6C539.6,357.2,540.4,357.5,538.9,357.9z"/>
			<path class="st13" d="M525,348.6c0,0,0.5-0.4,1.2-1.1c0.4-0.4,1.1,1,1.5,1.3c0.1,0.1,0.3-1.6,0.2-1.4c0,0,0.7-0.2,1.2,0
				c0.5,0.2-0.8-0.7-0.9-1.1c-0.3-1.1-1-1.4-1.6-1.8c-0.6-0.4-0.4-0.1-0.8-1c-0.3-0.7-0.5-1-1.5-1.2c-2.3-0.5-2.6-0.5-2.6-0.5
				s0.5,0.5,0.9,0.6c1.5,0.4,1.9,0.3,2.2,1.1c0.3,0.8,0.7,0.4,0,1.7c-0.5,0.8-0.1,1.4,0.1,2.2C525.3,348.3,525,348.6,525,348.6z"/>
		</g>
		<g>
			<path class="st12" d="M533,136.3c-3.7-0.9-5.8-3.4-7.2-8.8c-1.2-4.8,1.6-8.3,1.6-8.3s1.4,0.1,1.2,1.1c-0.2,0.9-0.1,0.6,0.7,1.5
				c0.2,0.3,0.4,0.6,0.4,1c0.1,0.3,0.2,0.5,0.2,0.8c0.1,0.6,0,1.1-0.2,1.4c0,0.3,0.1,0.5,0.1,0.8c0,0.1,0.1,0.2,0.1,0.3
				c0.8,0.4,1.4,1.4,1.6,2.6c0.1,0.8,0,1.6-0.4,2c0,0.1,0.1,0.1,0.1,0.2c0.2,0.3,0.3,0.6,0.4,0.9c0.4,0.4,0.7,0.8,0.8,1.3
				c0,0.1,0,0.3,0,0.4c0.2,0.4,0.3,0.8,0.5,1.4c0.2,0.7,0.4,0.8,0.8,1.2C534,136.1,534.6,136.7,533,136.3z"/>
			<path class="st13" d="M525.5,121.4c0,0,0.6-0.1,1.6-0.4c0.6-0.1,0.5,1.4,0.7,1.9c0.1,0.2,1-1.3,0.9-1.1c0,0,0.7,0.2,1,0.6
				c0.3,0.4-0.4-1-0.2-1.4c0.3-1.1-0.2-1.7-0.5-2.3c-0.3-0.6-0.3-0.2-0.2-1.3c0.1-0.7,0.1-1.2-0.7-1.8c-1.8-1.6-2-1.7-2-1.7
				s0.2,0.7,0.5,1c1.1,1.1,1.5,1.1,1.4,2c-0.2,0.9,0.4,0.7-0.8,1.4c-0.8,0.5-0.8,1.2-1,1.9C526,121.2,525.5,121.4,525.5,121.4z"/>
		</g>
		<g>
			<path class="st12" d="M548.3,119c-2.5,2.9-5.7,3.7-11.1,2.5c-4.8-1-6.7-5.1-6.7-5.1s0.7-1.2,1.5-0.6c0.7,0.6,0.5,0.4,1.7,0
				c0.3-0.1,0.7-0.1,1.1,0.1c0.3,0,0.6,0.1,0.8,0.2c0.6,0.2,1,0.5,1.2,0.8c0.2,0.1,0.5,0.2,0.7,0.2c0.1,0,0.2,0,0.3,0
				c0.7-0.5,1.9-0.7,3-0.3c0.8,0.3,1.4,0.7,1.6,1.2c0.1,0,0.1,0,0.2,0c0.4,0,0.7,0,1,0c0.5-0.2,1.1-0.3,1.5-0.1
				c0.1,0,0.2,0.1,0.3,0.2c0.4,0,0.8,0.1,1.5,0.2c0.7,0.1,0.9,0,1.4-0.2C548.6,118,549.4,117.8,548.3,119z"/>
			<path class="st13" d="M531.6,119.1c0,0,0.2-0.6,0.4-1.6c0.1-0.6,1.5,0.2,2,0.2c0.2,0-0.7-1.5-0.6-1.3c0,0,0.5-0.5,1-0.7
				c0.5-0.1-1-0.1-1.4-0.4c-0.8-0.7-1.6-0.6-2.3-0.6c-0.7,0-0.4,0.2-1.2-0.4c-0.6-0.4-1-0.6-1.9-0.2c-2.2,0.9-2.4,1.1-2.4,1.1
				s0.7,0.1,1.1,0c1.5-0.5,1.7-0.8,2.4-0.3c0.7,0.5,0.8,0,0.9,1.4c0.1,1,0.7,1.3,1.3,1.8C531.7,118.6,531.6,119.1,531.6,119.1z"/>
		</g>
		<g>
			<path class="st12" d="M547,132.5c-4.5,1.2-8.4-0.2-13.1-5.2c-4.2-4.4-3.3-10-3.3-10s1.6-0.7,1.9,0.4c0.4,1.1,0.2,0.7,1.7,1.2
				c0.4,0.1,0.8,0.4,1.1,0.8c0.3,0.2,0.5,0.5,0.7,0.7c0.4,0.6,0.7,1.2,0.7,1.7c0.2,0.3,0.4,0.5,0.6,0.7c0.1,0.1,0.2,0.1,0.2,0.2
				c1.1,0,2.4,0.7,3.3,1.8c0.6,0.8,0.9,1.7,0.8,2.4c0.1,0.1,0.1,0.1,0.2,0.2c0.4,0.3,0.7,0.5,1,0.7c0.7,0.1,1.3,0.5,1.7,0.9
				c0.1,0.1,0.2,0.3,0.2,0.4c0.4,0.3,0.8,0.7,1.4,1.2c0.6,0.6,0.9,0.6,1.6,0.8C548,131.6,548.9,132,547,132.5z"/>
			<path class="st13" d="M529.8,120.9c0,0,0.6-0.5,1.5-1.4c0.5-0.5,1.4,1.2,1.9,1.6c0.2,0.1,0.4-2,0.3-1.8c0,0,0.9-0.2,1.5,0
				c0.6,0.2-1-0.8-1.1-1.4c-0.3-1.3-1.3-1.7-2-2.2c-0.7-0.5-0.5-0.1-1-1.2c-0.3-0.8-0.7-1.3-1.8-1.5c-2.9-0.6-3.2-0.6-3.2-0.6
				s0.6,0.6,1.2,0.8c1.8,0.5,2.3,0.3,2.7,1.4c0.4,1,0.9,0.5,0,2.1c-0.6,1.1-0.2,1.8,0.1,2.7C530.2,120.4,529.8,120.9,529.8,120.9z"
				/>
		</g>
	</g>
	<g id="花">
		<g>
			<path class="st14" d="M519.2,131.7c0,0-4-0.9-5.9-0.9c-1.9,0-3.5-0.1-6,0.5c-2.5,0.6-3.1,1-3.9,1.4c-0.9,0.4,3.5-1.1,5.6-1.3
				c2.3-0.2,3.9,0,5.5,0.1c2.9,0.2,3.9,0.8,3.9,0.8l1.5,0.7L519.2,131.7z"/>
			<path class="st15" d="M508.1,128.4c-0.2,0.6-0.4,1.1-0.9,1.5c-0.4,0.4-0.9,0.8-1.3,1c-0.2,0.1-0.4,0.2-0.5,0.3
				c0,0,0.1,0.1,0.1,0.1c0,0,0.1,0,0.1-0.1c0.5-0.3,0.9-0.5,1.3-0.8c0.1,0,0.1,0.1,0,0.3c-0.5,0.8,0,0.9-0.3,1.2
				c0.1,0,0.2,0.1,0.3,0.1c0.4,0.2,0.7,0.5,0.8,0.8c0,0,0,0,0,0.1c0,0,0,0,0,0c0.1,0.2,0.1,0.4,0,0.6c0,1.4,0.1,2.9-2,3.1l-0.6,0.2
				c-0.9,0.1-0.5-0.7-2.2-0.8c-0.4,0-0.5-0.2-0.5-0.3c0.9-0.3,1.8-0.7,2.6-1.2c0.3-0.2,0.6-0.3,0.9-0.5c-0.1,0-0.2-0.1-0.3-0.1
				c-0.5,0.3-1,0.5-1.5,0.7c-0.9,0.4-1.9,0.7-3,1c-1.2,0.2-2.2,0.1-3.2-0.3c-1.7-0.5-1.8-2,0-3.1c0,0.1,0.1,0.1,0.1,0.1l-0.1-0.1
				c0,0,0,0,0,0c-1.6-1.8,2.4-5.9,5.7-3.2c-0.1-2.2,2.9-2.8,3.2-1.5c0,0,0,0,0,0l0,0.1c0,0,0-0.1,0-0.1
				C507.8,127,508.4,127.5,508.1,128.4z"/>
		</g>
		<g>
			<path class="st14" d="M517.3,133.8c0,0-3.1,2.7-4.2,4.3c-1.1,1.6-2.1,2.8-3.1,5.2c-1,2.4-1,3-1.2,4c-0.2,0.9,1.2-3.5,2.2-5.3
				c1.2-2,2.3-3.2,3.4-4.4c1.9-2.2,2.9-2.6,2.9-2.6l1.5-0.9L517.3,133.8z"/>
			<path class="st15" d="M511.4,136c0.4,0.5,0.6,1,0.7,1.6c0.1,0.6,0.1,1.2,0,1.7c0,0.2,0,0.4-0.1,0.6c0.1,0,0.1,0,0.2,0
				c0,0,0-0.1,0-0.1c0.1-0.5,0.1-1,0.1-1.6c0,0,0.1,0,0.2,0.2c0.4,0.8,0.7,0.5,0.8,1c0.1-0.1,0.2-0.1,0.3-0.2
				c0.4-0.2,0.8-0.2,1.1-0.2c0,0,0,0,0.1,0c0,0,0,0,0,0c0.2,0.1,0.3,0.2,0.4,0.4c1.1,0.9,2.4,1.6,1.3,3.4l-0.2,0.6
				c-0.4,0.8-0.8,0-2,1.3c-0.2,0.3-0.4,0.3-0.5,0.2c0.3-1,0.5-1.8,0.6-2.8c0.1-0.3,0.1-0.7,0.1-1c-0.1,0.1-0.2,0.1-0.3,0.2
				c-0.1,0.6-0.2,1.1-0.3,1.7c-0.2,1-0.5,2-1,3c-0.5,1.1-1.2,1.8-2.1,2.5c-1.4,1.1-2.7,0.3-2.5-1.8c0.1,0,0.1,0,0.2,0l-0.2,0
				c0,0,0,0,0,0c-2.5,0.2-3.4-5.4,0.8-6.5c-1.8-1.2-0.6-4,0.6-3.5c0,0,0,0,0,0l0.1,0c0,0-0.1,0-0.1,0
				C510.1,135.4,510.9,135.2,511.4,136z"/>
		</g>
		<g>
			<path class="st14" d="M519.9,104.3c0,0-3.7,1.7-5.2,2.9c-1.5,1.2-2.8,2.1-4.4,4.1c-1.6,2-1.8,2.6-2.3,3.5
				c-0.5,0.8,2.1-3.1,3.6-4.5c1.7-1.6,3.1-2.4,4.4-3.3c2.4-1.6,3.5-1.7,3.5-1.7l1.6-0.4L519.9,104.3z"/>
			<path class="st15" d="M513.7,104.8c0.2,0.5,0.3,1.1,0.2,1.7c-0.1,0.6-0.2,1.1-0.4,1.7c-0.1,0.2-0.1,0.4-0.2,0.6
				c0.1,0,0.1,0,0.2,0.1c0,0,0-0.1,0.1-0.1c0.2-0.5,0.4-1,0.5-1.5c0.1,0,0.1,0.1,0.1,0.2c0.1,0.9,0.5,0.7,0.5,1.1
				c0.1,0,0.2-0.1,0.4-0.1c0.4-0.1,0.8,0,1.1,0.1c0,0,0,0,0.1,0c0,0,0,0,0,0c0.2,0.1,0.3,0.3,0.3,0.5c0.8,1.2,1.8,2.2,0.3,3.6
				l-0.4,0.5c-0.7,0.7-0.8-0.2-2.3,0.7c-0.3,0.2-0.5,0.2-0.5,0.1c0.5-0.8,1-1.6,1.4-2.5c0.1-0.3,0.3-0.6,0.4-1
				c-0.1,0-0.2,0.1-0.3,0.1c-0.2,0.5-0.5,1-0.8,1.5c-0.5,0.9-1.1,1.8-1.8,2.6c-0.8,0.9-1.7,1.4-2.7,1.8c-1.6,0.6-2.7-0.5-1.9-2.5
				c0.1,0,0.1,0,0.2,0l-0.2,0c0,0,0,0,0,0c-2.4-0.4-1.7-6.1,2.5-6c-1.4-1.7,0.6-4,1.6-3.2c0,0,0,0,0,0l0.1,0.1c0,0-0.1-0.1-0.1-0.1
				C512.6,103.9,513.4,103.9,513.7,104.8z"/>
		</g>
		<g>
			<path class="st14" d="M511.9,188.1c0,0-4,0.7-5.8,1.4c-1.8,0.7-3.3,1.2-5.4,2.8c-2.1,1.5-2.5,2.1-3.1,2.7
				c-0.7,0.7,2.8-2.4,4.7-3.3c2.1-1.1,3.6-1.5,5.2-2c2.7-0.9,3.9-0.7,3.9-0.7l1.7,0L511.9,188.1z"/>
			<path class="st15" d="M500.7,189.6c0.1,0.6,0,1.1-0.2,1.7c-0.2,0.5-0.5,1-0.9,1.5c-0.1,0.2-0.2,0.3-0.4,0.5c0,0,0.1,0.1,0.1,0.1
				c0,0,0.1-0.1,0.1-0.1c0.3-0.4,0.6-0.8,0.9-1.3c0.1,0,0.1,0.1,0.1,0.3c-0.1,0.9,0.3,0.8,0.2,1.2c0.1,0,0.2,0,0.4,0
				c0.4,0,0.8,0.2,1,0.4c0,0,0,0,0.1,0c0,0,0,0,0,0c0.1,0.2,0.2,0.3,0.2,0.5c0.5,1.3,1.2,2.6-0.7,3.6l-0.5,0.4
				c-0.8,0.5-0.7-0.5-2.4,0.1c-0.3,0.1-0.6,0.1-0.5-0.1c0.7-0.7,1.4-1.3,2-2.1c0.2-0.3,0.4-0.5,0.7-0.8c-0.1,0-0.2,0-0.4,0
				c-0.4,0.4-0.7,0.8-1.2,1.2c-0.7,0.7-1.5,1.4-2.4,2c-1,0.6-2,0.9-3.1,1c-1.7,0.2-2.4-1.2-1.2-2.9c0.1,0,0.1,0.1,0.2,0.1l-0.2-0.1
				c0,0,0,0,0,0c-2.2-1.1,0-6.4,4.1-5.1c-0.9-2,1.6-3.7,2.4-2.6c0,0,0,0,0,0l0.1,0.1c0,0,0-0.1-0.1-0.1
				C499.9,188.4,500.7,188.7,500.7,189.6z"/>
		</g>
		<g>
			<path class="st14" d="M510.1,255.5c0,0-4.1,0.2-5.9,0.8c-1.9,0.6-3.4,0.9-5.6,2.2c-2.2,1.3-2.7,1.8-3.4,2.4
				c-0.8,0.6,3.1-2.1,5-2.8c2.2-0.8,3.8-1.1,5.4-1.4c2.8-0.6,3.9-0.3,3.9-0.3l1.7,0.2L510.1,255.5z"/>
			<path class="st15" d="M497,256.8c0,0.6-0.1,1.1-0.4,1.7c-0.3,0.5-0.7,1-1,1.4c-0.1,0.2-0.3,0.3-0.4,0.5c0,0,0.1,0.1,0.1,0.1
				c0,0,0.1-0.1,0.1-0.1c0.4-0.4,0.7-0.7,1-1.2c0.1,0,0.1,0.1,0,0.3c-0.2,0.9,0.2,0.8,0,1.2c0.1,0,0.2,0,0.4,0
				c0.4,0.1,0.8,0.3,1,0.5c0,0,0,0,0.1,0.1c0,0,0,0,0,0c0.1,0.2,0.2,0.4,0.1,0.5c0.4,1.4,0.9,2.7-1.1,3.5l-0.6,0.4
				c-0.9,0.4-0.7-0.5-2.4-0.2c-0.3,0.1-0.6,0-0.5-0.1c0.8-0.6,1.5-1.2,2.2-1.8c0.2-0.2,0.5-0.5,0.7-0.7c-0.1,0-0.2,0-0.4,0
				c-0.4,0.4-0.8,0.7-1.3,1.1c-0.8,0.6-1.6,1.2-2.6,1.7c-1.1,0.5-2.1,0.7-3.2,0.6c-1.7,0-2.3-1.4-0.9-3c0.1,0,0.1,0.1,0.2,0.1
				l-0.2-0.1c0,0,0,0,0,0c-2.1-1.3,0.7-6.3,4.6-4.7c-0.7-2.1,2-3.5,2.6-2.4c0,0,0,0,0,0l0,0.1c0,0,0-0.1,0-0.1
				C496.3,255.6,497,255.9,497,256.8z"/>
		</g>
		<g>
			<path class="st14" d="M512.7,188.6c0,0-2.8,3-3.8,4.7c-1,1.7-1.9,3-2.6,5.5c-0.7,2.5-0.7,3.1-0.8,4.1c-0.1,1,0.8-3.6,1.7-5.5
				c1-2.1,2-3.4,2.9-4.7c1.6-2.4,2.6-2.9,2.6-2.9l1.4-1L512.7,188.6z"/>
			<path class="st15" d="M505.9,193.5c0.4,0.4,0.7,0.9,0.9,1.5c0.1,0.6,0.2,1.2,0.2,1.7c0,0.2,0,0.4,0,0.6c0.1,0,0.1,0,0.2,0
				c0,0,0-0.1,0-0.1c0-0.5,0-1,0-1.6c0-0.1,0.1,0,0.2,0.2c0.5,0.8,0.7,0.4,0.9,0.9c0.1-0.1,0.2-0.2,0.3-0.2c0.4-0.2,0.8-0.3,1.1-0.3
				c0,0,0,0,0.1,0c0,0,0,0,0,0c0.2,0,0.4,0.2,0.5,0.3c1.2,0.8,2.5,1.4,1.6,3.2l-0.2,0.7c-0.4,0.9-0.8,0.1-1.9,1.5
				c-0.2,0.3-0.4,0.4-0.5,0.3c0.2-1,0.3-1.9,0.3-2.9c0-0.3,0-0.7,0-1.1c-0.1,0.1-0.2,0.2-0.3,0.2c0,0.6-0.1,1.1-0.2,1.7
				c-0.1,1-0.3,2-0.7,3.1c-0.4,1.1-1,2-1.9,2.7c-1.3,1.2-2.7,0.5-2.7-1.6c0.1,0,0.1,0,0.2-0.1l-0.2,0.1c0,0,0,0,0,0
				c-2.4,0.5-3.9-5,0.1-6.6c-2-1-1-3.9,0.3-3.5c0,0,0,0,0,0l0.1,0c0,0-0.1,0-0.1,0C504.5,193.1,505.3,192.8,505.9,193.5z"/>
		</g>
		<g>
			<path class="st14" d="M510,256.5c0,0-3.3,2.4-4.6,3.8c-1.3,1.5-2.4,2.6-3.6,4.9c-1.2,2.3-1.3,2.9-1.6,3.9
				c-0.3,0.9,1.5-3.4,2.7-5.1c1.4-1.9,2.6-2.9,3.8-4.1c2.1-2,3.2-2.4,3.2-2.4l1.5-0.7L510,256.5z"/>
			<path class="st15" d="M499.6,264.7c0.3,0.5,0.5,1,0.5,1.7c0,0.6,0,1.2-0.1,1.7c0,0.2-0.1,0.4-0.1,0.6c0.1,0,0.1,0,0.2,0
				c0,0,0-0.1,0-0.1c0.1-0.5,0.2-1,0.3-1.5c0,0,0.1,0,0.2,0.2c0.3,0.9,0.6,0.6,0.7,1c0.1-0.1,0.2-0.1,0.3-0.2
				c0.4-0.2,0.8-0.2,1.1-0.1c0,0,0,0,0.1,0c0,0,0,0,0,0c0.2,0.1,0.3,0.2,0.4,0.4c1,1,2.2,1.8,1,3.5l-0.3,0.6
				c-0.5,0.8-0.8-0.1-2.1,1.1c-0.3,0.2-0.5,0.3-0.5,0.2c0.4-0.9,0.6-1.8,0.9-2.7c0.1-0.3,0.2-0.7,0.2-1c-0.1,0.1-0.2,0.1-0.3,0.2
				c-0.1,0.5-0.3,1.1-0.5,1.6c-0.3,0.9-0.7,1.9-1.3,2.9c-0.6,1-1.4,1.7-2.3,2.2c-1.5,0.9-2.7,0-2.3-2.1c0.1,0,0.1,0,0.2,0l-0.2,0
				c0,0,0,0,0,0c-2.5,0-2.8-5.7,1.4-6.4c-1.7-1.4-0.2-4,1-3.4c0,0,0,0,0,0l0.1,0.1c0,0-0.1,0-0.1-0.1
				C498.4,264.1,499.2,263.9,499.6,264.7z"/>
		</g>
		<g>
			<path class="st14" d="M518.1,132c0,0-6.3,3.5-9,5.6c-2.7,2.1-5,3.6-8.1,6.8c-3.1,3.1-3.6,4-4.6,5.2c-1,1.2,4.2-4.6,7-6.9
				c3.2-2.6,5.5-4.2,7.9-5.8c4.2-2.9,6-3.5,6-3.5l2.6-1.1L518.1,132z"/>
			<path class="st15" d="M504.5,138.3c0.2,0.6,0.1,1.2-0.2,2c-0.3,0.7-0.7,1.5-1.2,2.2c-0.2,0.3-0.3,0.5-0.5,0.8c0.1,0,0.1,0,0.2,0
				c0-0.1,0.1-0.1,0.1-0.2c0.5-0.7,0.9-1.3,1.3-2c0.1-0.1,0.2,0,0.2,0.2c-0.1,1.1,0.6,0.6,0.4,1.2c0.2-0.1,0.4-0.2,0.6-0.3
				c0.7-0.3,1.3-0.3,1.7-0.3c0,0,0.1,0,0.1,0c0,0,0,0,0,0c0.2,0.1,0.3,0.2,0.3,0.4c0.9,1.1,2.1,2-0.6,4.3l-0.8,0.8
				c-1.2,1.1-1.2,0-3.8,1.8c-0.5,0.4-0.9,0.4-0.8,0.3c1.1-1.2,2-2.4,2.9-3.6c0.3-0.4,0.6-0.9,0.9-1.3c-0.2,0.1-0.4,0.2-0.6,0.3
				c-0.5,0.7-1.1,1.4-1.7,2.1c-1,1.2-2.2,2.6-3.5,3.9c-1.5,1.4-3.1,2.4-4.7,3.2c-2.7,1.4-4,0.4-2.2-2.3c0.1,0,0.2,0,0.3,0l-0.3,0
				c0,0,0,0,0,0c-3.6,0.4-0.7-6.9,5.8-8.4c-1.7-1.5,2.1-5.1,3.4-4.5c0,0,0,0,0,0l0.1,0.1c0,0-0.1,0-0.1-0.1
				C503,137.6,504.3,137.3,504.5,138.3z"/>
		</g>
		<g>
			<path class="st14" d="M510.8,255.1c0,0-5,2.5-7.3,4.3c-2.3,1.8-4.2,3-7,6c-2.8,3-3.4,3.8-4.3,5c-1,1.2,3.9-4.4,6.3-6.5
				c2.7-2.3,4.7-3.5,6.6-4.8c3.5-2.3,4.8-2.6,4.8-2.6l2-0.6L510.8,255.1z"/>
			<path class="st15" d="M493.4,266c0.1,0.6,0.1,1.1-0.1,1.7c-0.2,0.6-0.5,1.1-0.7,1.5c-0.1,0.2-0.2,0.4-0.3,0.5
				c0,0,0.1,0.1,0.1,0.1c0,0,0.1-0.1,0.1-0.1c0.3-0.4,0.6-0.9,0.8-1.3c0.1,0,0.1,0.1,0.1,0.3c0,0.9,0.4,0.8,0.3,1.2
				c0.1,0,0.2,0,0.4,0c0.4,0,0.8,0.1,1.1,0.3c0,0,0,0,0.1,0c0,0,0,0,0,0c0.1,0.1,0.2,0.3,0.2,0.5c0.6,1.3,1.4,2.5-0.3,3.6l-0.5,0.5
				c-0.8,0.5-0.7-0.4-2.4,0.3c-0.3,0.1-0.5,0.1-0.5,0c0.7-0.7,1.2-1.4,1.8-2.2c0.2-0.3,0.4-0.6,0.6-0.9c-0.1,0-0.2,0-0.4,0
				c-0.3,0.5-0.7,0.9-1,1.3c-0.6,0.8-1.4,1.5-2.2,2.2c-0.9,0.7-1.9,1.1-3,1.3c-1.7,0.3-2.5-1-1.4-2.8c0.1,0,0.1,0,0.2,0.1l-0.2-0.1
				c0,0,0,0,0,0c-2.3-0.9-0.6-6.3,3.6-5.5c-1.1-1.9,1.3-3.8,2.1-2.8l0,0l0.1,0.1c0,0,0-0.1-0.1-0.1C492.4,264.9,493.2,265,493.4,266
				z"/>
		</g>
		<g>
			<path class="st14" d="M513.8,347.1c0,0-3,2.8-4,4.4c-1.1,1.6-2,2.9-2.9,5.3c-0.8,2.4-0.9,3.1-1.1,4c-0.2,1,1-3.6,2-5.4
				c1.1-2.1,2.2-3.3,3.2-4.5c1.8-2.3,2.8-2.8,2.8-2.8l1.4-0.9L513.8,347.1z"/>
			<path class="st15" d="M506.2,352c0.4,0.4,0.6,0.9,0.8,1.6c0.1,0.6,0.1,1.2,0.1,1.7c0,0.2,0,0.4,0,0.6c0.1,0,0.1,0,0.2,0
				c0,0,0-0.1,0-0.1c0-0.5,0.1-1,0-1.6c0-0.1,0.1,0,0.2,0.2c0.4,0.8,0.7,0.5,0.8,0.9c0.1-0.1,0.2-0.2,0.3-0.2
				c0.4-0.2,0.8-0.3,1.1-0.2c0,0,0,0,0.1,0c0,0,0,0,0,0c0.2,0.1,0.3,0.2,0.4,0.3c1.2,0.8,2.4,1.5,1.5,3.3l-0.2,0.6
				c-0.4,0.9-0.8,0-1.9,1.4c-0.2,0.3-0.4,0.4-0.5,0.3c0.2-1,0.4-1.8,0.5-2.8c0-0.3,0.1-0.7,0.1-1c-0.1,0.1-0.2,0.2-0.3,0.2
				c-0.1,0.6-0.1,1.1-0.3,1.7c-0.2,1-0.5,2-0.9,3c-0.5,1.1-1.2,1.9-2,2.5c-1.3,1.1-2.7,0.4-2.6-1.7c0.1,0,0.1,0,0.2,0l-0.2,0
				c0,0,0,0,0,0c-2.4,0.4-3.6-5.3,0.5-6.5c-1.9-1.1-0.7-4,0.5-3.5c0,0,0,0,0,0l0.1,0c0,0-0.1,0-0.1,0
				C504.8,351.5,505.6,351.3,506.2,352z"/>
		</g>
		<g>
			<path class="st14" d="M513.4,189.9c0,0-2.8,3.4-3.8,5.3c-1,1.9-1.9,3.3-2.6,6.1c-0.7,2.8-0.7,3.5-0.9,4.6
				c-0.1,1.1,0.8-4.1,1.7-6.2c1-2.4,2-3.8,2.9-5.3c1.7-2.7,2.7-3.3,2.7-3.3l1.4-1.1L513.4,189.9z"/>
			<path class="st15" d="M504.7,201.8c0.4,0.5,0.7,1,0.8,1.7c0.1,0.6,0.2,1.3,0.2,1.9c0,0.2,0,0.5,0,0.7c0.1,0,0.1,0,0.2,0
				c0,0,0-0.1,0-0.1c0-0.6,0-1.2,0-1.8c0-0.1,0.1,0,0.2,0.2c0.5,0.9,0.7,0.5,0.9,1c0.1-0.1,0.2-0.2,0.3-0.3c0.4-0.3,0.8-0.4,1.1-0.3
				c0,0,0,0,0.1,0c0,0,0,0,0,0c0.2,0.1,0.4,0.2,0.5,0.3c1.2,0.8,2.5,1.5,1.6,3.7l-0.2,0.7c-0.4,1-0.8,0.1-1.9,1.7
				c-0.2,0.3-0.4,0.4-0.5,0.3c0.2-1.1,0.3-2.1,0.4-3.2c0-0.4,0-0.8,0-1.2c-0.1,0.1-0.2,0.2-0.3,0.3c0,0.6-0.1,1.2-0.2,1.9
				c-0.1,1.1-0.4,2.3-0.7,3.4c-0.4,1.2-1.1,2.2-1.9,3c-1.3,1.3-2.7,0.6-2.7-1.8c0.1,0,0.1,0,0.2-0.1l-0.2,0.1c0,0,0,0,0,0
				c-2.4,0.6-3.8-5.7,0.2-7.4c-1.9-1.2-0.9-4.4,0.3-4c0,0,0,0,0,0l0.1,0c0,0-0.1,0-0.1,0C503.4,201.4,504.1,201,504.7,201.8z"/>
		</g>
		<g>
			<path class="st14" d="M511.1,256.5c0,0-2.6,3.1-3.5,4.9c-0.9,1.7-1.7,3.1-2.2,5.6c-0.6,2.5-0.5,3.2-0.6,4.1
				c-0.1,1,0.6-3.7,1.4-5.6c0.9-2.2,1.8-3.5,2.6-4.9c1.5-2.4,2.5-3.1,2.5-3.1l1.3-1.1L511.1,256.5z"/>
			<path class="st15" d="M504.1,263.3c0.4,0.4,0.7,0.9,0.9,1.5c0.2,0.6,0.3,1.1,0.3,1.7c0,0.2,0,0.4,0,0.6c0.1,0,0.1,0,0.2,0
				c0,0,0-0.1,0-0.1c0-0.5-0.1-1-0.1-1.6c0-0.1,0.1,0,0.2,0.2c0.5,0.8,0.8,0.4,0.9,0.8c0.1-0.1,0.2-0.2,0.3-0.2
				c0.4-0.3,0.7-0.4,1.1-0.3c0,0,0,0,0.1,0c0,0,0,0,0,0c0.2,0,0.4,0.1,0.5,0.3c1.3,0.7,2.6,1.2,1.8,3.1l-0.1,0.7
				c-0.3,0.9-0.8,0.1-1.8,1.6c-0.2,0.3-0.4,0.4-0.4,0.3c0.1-1,0.2-1.9,0.2-2.9c0-0.3,0-0.7,0-1c-0.1,0.1-0.2,0.2-0.3,0.3
				c0,0.6,0,1.1-0.1,1.7c-0.1,1-0.2,2-0.5,3.1c-0.3,1.1-0.9,2-1.7,2.8c-1.2,1.3-2.6,0.7-2.8-1.4c0.1,0,0.1,0,0.2-0.1l-0.2,0.1
				c0,0,0,0,0,0c-2.4,0.6-4.2-4.8-0.3-6.6c-2-0.9-1.2-3.8,0.1-3.5c0,0,0,0,0,0l0.1,0c0,0-0.1,0-0.1,0
				C502.7,263,503.5,262.6,504.1,263.3z"/>
		</g>
	</g>
	<g id="叶柄-左">
		<path class="st14" d="M519.3,98.7c0,0-10.1-9-15.4-11.7c-5.3-2.7-9.4-5.3-16.7-6.6c-7.3-1.2-9.1-0.8-11.8-0.8
			c-2.7,0.1,10.5,0.9,16.2,3.2c6.5,2.6,10.7,5.5,15,8.3c7.6,4.9,9.9,8.4,9.9,8.4l3.7,4.6L519.3,98.7z"/>
		<path class="st14" d="M518,127.4c0,0-15.3-10.4-23.9-13.9c-8.6-3.5-15.1-6.7-27.6-9.1c-12.5-2.3-15.7-2.2-20.5-2.5
			c-4.8-0.3,18.1,2.5,27.6,5.7c10.7,3.6,17.2,7.1,24,10.5c12,6,15,9.8,15,9.8l5.2,5.1L518,127.4z"/>
		<path class="st14" d="M511.9,252.2c0,0-17.9-10.4-27.9-13.9c-10-3.5-17.7-6.7-32.2-9.1c-14.6-2.3-18.3-2.2-23.9-2.5
			c-5.6-0.3,21.2,2.5,32.2,5.7c12.6,3.6,20.1,7.1,28.1,10.5c14.1,6,17.6,9.8,17.6,9.8l6.1,5.1L511.9,252.2z"/>
		<path class="st14" d="M515,340.3c0,0-22.2-10.4-34.6-13.9c-12.4-3.5-21.9-6.7-40-9.1c-18.1-2.3-22.7-2.2-29.7-2.5
			c-6.9-0.3,26.2,2.5,40,5.7c15.6,3.6,24.9,7.1,34.8,10.5c17.4,6,21.8,9.8,21.8,9.8l7.6,5.1L515,340.3z"/>
		<path class="st14" d="M514.7,185.1c0,0-15.6-12.2-24.6-16.7c-9-4.5-15.8-8.5-29.2-12.4c-13.4-3.9-16.9-4.1-22.1-5.1
			c-5.2-0.9,19.5,4.7,29.6,9c11.4,4.9,18,9.2,25.1,13.4c12.5,7.4,15.4,11.6,15.4,11.6l5.2,5.7L514.7,185.1z"/>
		<path class="st14" d="M520.6,331.9c0,0-9.6-13.4-15.9-19.2c-6.2-5.9-10.8-10.8-20.9-17.4c-10.1-6.7-13-7.9-17-10.1
			c-4.1-2.2,15,9.1,22.2,15.1c8.1,6.8,12.5,11.9,17.2,17c8.4,9,9.6,12.8,9.6,12.8l2.7,5.6L520.6,331.9z"/>
	</g>
	<g id="叶子-左">
		<g>
			<path class="st14" d="M432.2,236.2c3.9-2.7,8.1-6.6,13.1-7.4c0.9,0.8,1.4,2.1,1.3,3.2c-0.9,0.1-9.4,1.8-8.6,2.7
				c6.2,7.6-3,18.7-13,21.5c-11.5,3.2-26.3,0.1-36,8c5.3-12,8.8-25.4,23.7-32.8c9.2-4.6,27.3-1.7,20.9,2.3c-8.6,5.5-12.4,7.2-22,7.2
				c2.6,0.8,5.7,0.7,8.4,1.3c-5.7,3.5-9.2,7.5-15.4,11.1c9.8-5.6,15.3-10,23.7-13.8c-0.3,2.2,0.5,4.8,0.9,6.8
				C428.7,243.1,430.6,239.5,432.2,236.2L432.2,236.2z"/>
			<path class="st16" d="M440.9,222.2c3.7,1.3,8.4,2.4,10.6,4.9c-0.6,0.7-1.7,1.4-2.7,1.7c-0.4-0.5-4.2-4.5-4.9-3.9
				c-5.7,5.6-18.7,3.9-24.1-0.7c-6.1-5.3-7.1-14.2-17.2-17.2c12.9-0.7,26.7-2.7,37.8,3.2c6.9,3.6,8.9,14.3,3.3,12.1
				c-7.6-3.1-10.2-4.6-12.8-9.8c0,1.6,0.8,3.3,1,5c-4.9-2-9.7-2.8-14.7-5.1c8,3.7,13.6,5.3,19.6,8.8c-2.2,0.5-4.4,1.7-6.3,2.5
				C433.5,222.3,437.3,222.3,440.9,222.2L440.9,222.2z"/>
			<path class="st17" d="M419.2,227.1c4.4-0.8,9.5-2.3,13.8-1.6c0.2,0.8,0,1.8-0.7,2.6c-0.8-0.2-8-1.3-7.9-0.4
				c0.6,6.9-12,12-21,11.3c-10.3-0.9-19.8-7-31.2-4.2c10.3-6.8,20-15.1,35.1-16.2c9.3-0.7,21.4,6.1,14.5,7.2
				c-9.4,1.5-13.1,1.6-20.3-0.9c1.6,1.2,3.9,2,5.7,3.2c-6.1,0.9-10.9,2.7-17.4,3.5c10.3-1.2,16.7-2.8,25-3.1
				c-1.4,1.4-2.1,3.4-2.9,4.9C413,230.9,416.3,229,419.2,227.1L419.2,227.1z"/>
		</g>
		<g>
			<path class="st16" d="M439.6,162c3.7-2.5,7.5-6.1,12.3-7c0.8,0.8,1.3,2,1.3,3c-0.9,0.1-8.8,1.7-8.1,2.6
				c5.8,7.1-2.8,17.5-12.1,20.1c-10.7,3-24.6,0.1-33.7,7.5c5-11.2,8.3-23.8,22.2-30.7c8.6-4.3,25.5-1.6,19.6,2.2
				c-8.1,5.1-11.6,6.7-20.6,6.7c2.4,0.7,5.4,0.7,7.9,1.2c-5.3,3.3-8.6,7.1-14.4,10.4c9.2-5.2,14.3-9.3,22.2-12.9
				c-0.3,2.1,0.5,4.5,0.9,6.4C436.3,168.4,438.1,165.1,439.6,162L439.6,162z"/>
			<path class="st14" d="M447.7,148.9c3.4,1.2,7.9,2.3,10,4.6c-0.5,0.7-1.5,1.3-2.6,1.6c-0.4-0.4-4-4.2-4.6-3.6
				c-5.3,5.2-17.5,3.7-22.5-0.6c-5.7-4.9-6.7-13.3-16.1-16.1c12.1-0.6,25-2.6,35.4,3c6.4,3.4,8.3,13.4,3.1,11.3
				c-7.1-2.9-9.6-4.3-11.9-9.2c0,1.5,0.8,3.1,0.9,4.6c-4.6-1.9-9.1-2.6-13.8-4.8c7.5,3.5,12.8,5,18.3,8.2c-2.1,0.4-4.1,1.6-5.9,2.4
				C440.7,149,444.4,149,447.7,148.9L447.7,148.9z"/>
			<path class="st18" d="M427.4,153.5c4.1-0.8,8.9-2.2,12.9-1.5c0.2,0.7,0,1.7-0.6,2.4c-0.7-0.1-7.5-1.2-7.4-0.4
				c0.6,6.5-11.3,11.3-19.7,10.6c-9.6-0.8-18.5-6.5-29.2-3.9c9.6-6.4,18.7-14.1,32.8-15.2c8.7-0.6,20,5.7,13.6,6.8
				c-8.8,1.4-12.3,1.5-19-0.9c1.5,1.1,3.7,1.9,5.3,3c-5.7,0.9-10.2,2.5-16.3,3.3c9.7-1.1,15.6-2.6,23.4-2.9c-1.3,1.3-2,3.2-2.7,4.6
				C421.6,157,424.7,155.2,427.4,153.5L427.4,153.5z"/>
		</g>
		<g>
			<path class="st16" d="M464.4,293.4c3.8-0.8,8-2.2,12.2-1.5c0.5,0.8,0.6,1.8,0.2,2.6c-0.8-0.2-7.8-1.3-7.4-0.5
				c2.8,6.8-7.2,11.8-15.8,11c-9.8-0.9-20.6-7.1-30.2-4.3c7.3-6.7,13.5-14.8,27.1-15.8c8.4-0.6,21.8,6.2,15.7,7.3
				c-8.2,1.4-11.6,1.5-19-1.1c1.8,1.2,4.3,2,6.3,3.2c-5.4,0.9-9.1,2.6-15,3.3c9.2-1.1,14.6-2.6,22.1-2.9c-0.8,1.4-0.9,3.4-1,4.9
				C459.9,297.1,462.3,295.3,464.4,293.4L464.4,293.4z"/>
			<path class="st14" d="M474.9,286.3c2.5,1.9,5.9,3.9,7,6.2c-0.6,0.3-1.7,0.5-2.6,0.4c-0.2-0.4-2.1-4.2-2.8-3.9
				c-5.9,2.2-15.6-2.4-18.6-7c-3.4-5.2-1.8-11.6-9-16.3c10.2,3,21.6,5.4,28.7,12.4c4.4,4.3,3.2,12.1-0.5,9.1
				c-5.1-4.1-6.8-5.9-7.4-10.1c-0.5,1.1-0.2,2.5-0.5,3.6c-3.3-2.7-6.8-4.5-10.2-7.5c5.3,4.7,9.3,7.3,13,11.2c-1.8-0.3-3.9-0.1-5.6,0
				C469,284.4,472.1,285.4,474.9,286.3L474.9,286.3z"/>
			<path class="st18" d="M456.6,283.8c3.6,0.6,8,1,11.2,2.7c0,0.6-0.5,1.2-1.2,1.6c-0.6-0.3-5.9-3-6.1-2.4
				c-1.3,4.8-12.5,4.9-19.4,1.9c-7.8-3.4-13.6-10.1-23.3-11.3c9.8-1.8,19.5-4.8,31.6-1.4c7.5,2.1,15.1,10,9.4,8.8
				c-7.7-1.6-10.7-2.5-15.6-6.1c0.9,1.3,2.5,2.4,3.6,3.7c-5-1-9.2-1.1-14.5-2.4c8.4,2,13.8,2.7,20.4,4.7c-1.5,0.6-2.5,1.7-3.5,2.6
				C450.8,284.6,453.9,284.2,456.6,283.8L456.6,283.8z"/>
		</g>
		<g>
			<path class="st18" d="M451.2,110.8c3.9-1.8,8.1-4.5,12.7-4.5c0.6,0.9,0.9,2.1,0.7,3.1c-0.9,0-8.5,0.1-8,1
				c4.2,7.7-5.6,15.9-14.8,16.8c-10.6,1-23.1-4.1-32.9,1.3c6.6-9.7,11.8-20.9,26.1-25.1c8.8-2.6,24.3,2.8,18,5.4
				c-8.5,3.5-12.1,4.4-20.4,2.9c2.2,1.1,4.9,1.5,7.2,2.5c-5.6,2.2-9.3,5.2-15.3,7.3c9.5-3.3,15-6.4,23-8.4c-0.6,1.9-0.3,4.3-0.2,6.1
				C447.1,116.2,449.3,113.4,451.2,110.8L451.2,110.8z"/>
			<path class="st14" d="M461.1,99.8c3,1.7,7,3.5,8.6,6c-0.6,0.5-1.7,1-2.7,1c-0.3-0.5-3-4.7-3.7-4.2c-5.9,4-17,0.5-21-4.4
				c-4.5-5.6-4-13.6-12.4-17.8c11.4,1.5,23.9,1.8,32.7,8.8c5.5,4.3,5.6,14,1,11.1c-6.2-3.9-8.3-5.7-9.7-10.6
				c-0.3,1.4,0.2,3.1,0.1,4.5c-4-2.6-8.1-4-12.2-6.8c6.4,4.5,11.1,6.9,15.8,10.8c-2,0.1-4.2,0.8-5.9,1.2
				C454.5,98.7,457.9,99.3,461.1,99.8L461.1,99.8z"/>
			<path class="st17" d="M441.2,100.7c4,0,8.7-0.6,12.4,0.8c0.1,0.7-0.3,1.6-1,2.2c-0.7-0.3-6.8-2.4-6.9-1.6
				c-0.6,6.2-12.5,8.7-20.3,6.6c-8.9-2.4-16.3-9.3-26.8-8.6c10.1-4.4,19.9-10.1,33.4-8.7c8.3,0.9,17.8,8.8,11.6,8.6
				c-8.5-0.2-11.8-0.7-17.7-4c1.2,1.3,3.1,2.4,4.5,3.7c-5.5-0.2-10,0.7-15.9,0.3c9.3,0.6,15.1,0.2,22.5,1.2c-1.5,1-2.4,2.7-3.3,3.9
				C435.2,103,438.4,101.8,441.2,100.7L441.2,100.7z"/>
		</g>
		<path class="st18" d="M511.6,72.1c3.8,3.4,8.9,6.9,11,11.3c-0.7,0.7-2,1.2-3.3,1.1c-0.4-0.8-4-8-4.8-7.3
			c-7.1,5.1-21.2-2.8-26.4-11.4c-6-9.8-5.7-22.3-16.4-30.6c14.3,4.7,29.9,7.9,41.2,20.7c7,7.9,7.7,23.2,1.9,17.7
			c-7.9-7.4-10.6-10.7-12.6-18.7c-0.3,2.2,0.4,4.8,0.4,7.1C497.4,57,492.2,54,487,48.7c8.2,8.4,14.3,13.1,20.3,20.3
			c-2.5-0.3-5.1,0.3-7.3,0.7C503.3,69.1,507.6,70.8,511.6,72.1L511.6,72.1z"/>
		<g>
			<path class="st14" d="M410.7,316.3c4.7-0.9,10.2-2.5,14.8-1.7c0.2,0.9,0,2-0.7,2.8c-0.8-0.2-8.6-1.4-8.5-0.5
				c0.7,7.4-12.9,12.9-22.6,12.1c-11-0.9-21.3-7.5-33.5-4.5c11-7.3,21.4-16.2,37.7-17.4c10-0.7,23,6.6,15.6,7.8
				c-10.1,1.6-14.1,1.7-21.8-1c1.7,1.3,4.2,2.2,6.1,3.4c-6.6,1-11.7,2.9-18.7,3.7c11.1-1.3,18-3,26.9-3.4c-1.5,1.5-2.3,3.7-3.1,5.3
				C404.1,320.3,407.6,318.3,410.7,316.3L410.7,316.3z"/>
			<path class="st16" d="M424.6,326.1c4.2-2.9,8.7-7,14.1-8c0.9,0.9,1.5,2.3,1.4,3.5c-1,0.1-10,2-9.2,2.9
				c6.6,8.2-3.2,20.1-13.9,23.1c-12.3,3.4-28.2,0.1-38.6,8.6c5.7-12.9,9.5-27.3,25.5-35.3c9.9-4.9,29.3-1.8,22.5,2.5
				c-9.3,5.9-13.4,7.7-23.6,7.7c2.8,0.8,6.1,0.8,9.1,1.4c-6.1,3.8-9.9,8.1-16.6,11.9c10.6-6,16.4-10.7,25.4-14.8
				c-0.3,2.4,0.5,5.1,1,7.3C420.9,333.4,422.9,329.6,424.6,326.1L424.6,326.1z"/>
			<path class="st18" d="M434,311c3.9,1.4,9.1,2.6,11.4,5.3c-0.6,0.8-1.8,1.5-2.9,1.8c-0.4-0.5-4.5-4.9-5.3-4.1
				c-6.1,6-20.1,4.2-25.8-0.7c-6.6-5.7-7.6-15.3-18.5-18.4c13.8-0.7,28.7-2.9,40.6,3.4c7.4,3.9,9.6,15.4,3.6,12.9
				c-8.1-3.3-11-5-13.7-10.5c0,1.8,0.9,3.6,1.1,5.3c-5.3-2.2-10.4-3-15.8-5.5c8.6,4,14.7,5.7,21,9.4c-2.4,0.5-4.8,1.8-6.8,2.7
				C426,311.1,430.2,311.1,434,311L434,311z"/>
		</g>
		<g>
			<path class="st16" d="M480.7,81.1c3.4-0.4,7.3-1.5,10.8-0.4c0.3,0.8,0.2,1.8-0.2,2.5c-0.6-0.2-6.5-1.9-6.4-1.1
				c1.4,6.9-8,10.9-15.3,9.4c-8.3-1.7-16.7-8.5-25.4-6.7c7.3-5.9,13.9-13.2,25.8-13c7.3,0.1,17.9,7.9,12.5,8.3
				c-7.3,0.7-10.2,0.5-16.3-2.6c1.4,1.3,3.4,2.3,4.9,3.6c-4.8,0.4-8.3,1.8-13.4,2c8.1-0.3,13-1.3,19.5-1c-0.9,1.3-1.2,3.2-1.6,4.6
				C476.3,84.3,478.6,82.7,480.7,81.1L480.7,81.1z"/>
			<path class="st14" d="M490.9,75.1c1.9,2,4.5,4.3,5.1,6.6c-0.6,0.3-1.5,0.3-2.3,0.2c-0.1-0.4-1.2-4.3-1.9-4.1
				c-5.4,1.7-13.1-3.7-15-8.3c-2.1-5.3,0.2-11.4-5.3-16.5c8.4,3.8,17.8,7,22.9,14.4c3.2,4.6,1,12-1.8,8.7c-3.8-4.4-5-6.3-4.9-10.4
				c-0.6,1-0.6,2.4-1,3.5c-2.4-2.9-5.2-4.9-7.7-8.1c3.8,5,6.9,7.9,9.5,12c-1.6-0.4-3.4-0.4-4.8-0.5C486.1,72.7,488.6,74,490.9,75.1
				L490.9,75.1z"/>
			<path class="st17" d="M475.5,71.1c3,0.9,6.8,1.6,9.3,3.5c-0.1,0.6-0.6,1.2-1.3,1.4c-0.4-0.4-4.6-3.4-4.9-2.9
				c-1.9,4.6-11.6,3.7-17,0.3c-6.2-3.9-10.3-10.9-18.4-12.9c8.7-1,17.6-3,27.5,1.2c6.1,2.6,11.5,10.9,6.8,9.3
				c-6.4-2.1-8.8-3.3-12.5-7.2c0.6,1.3,1.8,2.6,2.5,3.9c-4.2-1.4-7.8-1.8-12.2-3.5c6.9,2.6,11.5,3.7,16.9,6.2
				c-1.4,0.4-2.5,1.5-3.4,2.2C470.3,71.5,473,71.3,475.5,71.1L475.5,71.1z"/>
		</g>
		<g>
			<path class="st19" d="M521.6,66.7c-1.4-1.6-3.5-2.7-5.1-3.7c2.3,1.5,4,4.5,5.6,7.4V52.8c-0.4-2.9-0.9-5.8-0.9-9.1
				C521.2,53.1,522.1,59.2,521.6,66.7z"/>
			<path class="st20" d="M516.5,63c1.6,1,3.7,2.1,5.1,3.7c0.6-7.5-0.3-13.5-0.4-23c0,3.3,0.4,6.2,0.9,9.1V31.2
				c-0.8-1.3-1.6-2.6-2.3-3.9c1.7,10.8-6.2,17.9-8.4,26.8c-1.9,7.8,2.1,20.3,9.8,21.3c0.9,0.1-1.2,6.3-1.4,6.9
				c0.6,0.6,1.5,1.1,2.4,1.2V70.4C520.5,67.5,518.8,64.5,516.5,63z"/>
		</g>
	</g>
	<g id="枝干">
		<path class="st21" d="M512.9,303c0.1,6.2,3.9,37.1,2.9,39.8c-6,17.4-1.2,27.3-1.9,31.7c-0.5,2.9-0.2,7.8,0,12.3H525    c-0.2-3.6-0.8-14-0.7-18.1c0.2-5,0.6-23.9,0-29.4c-0.6-5.5-1.2-20.1-1.5-27s-1.4-9.2-1.5-14.7c-0.1-5.5-2.9-20.1-3.3-29.4    c-0.4-9.3-0.8-21.4-0.8-24.7c0-3.3,0-25,0.3-29.4c0.2-4.3,2.9-25,3.7-30.7c0.8-5.7,2.6-24.3,3.1-28.6c0.5-4.3-0.6-16.8,0-21.5    c1-8.2,2-11.2,2-24.5c0-4.6-0.2-27-1-30.6c-4.1-17.4-4.7,4.3-4.7,4.3s-0.1,23.7-0.4,30.4c-0.3,6.7-2.5,23.5-3.1,28.6    c-0.6,5.1-1.8,35.8-3.1,39.8c-1.3,4-2.6,38.7-3.5,42.7c-0.9,4,0.3,46.7,1.5,53.5C513.2,284.4,512.8,296.8,512.9,303z"/>
		<path class="limb-mouseover" d="M512.9,303c0.1,6.2,3.9,37.1,2.9,39.8c-6,17.4-1.2,27.3-1.9,31.7c-0.5,2.9-0.2,7.8,0,12.3H525    c-0.2-3.6-0.8-14-0.7-18.1c0.2-5,0.6-23.9,0-29.4c-0.6-5.5-1.2-20.1-1.5-27s-1.4-9.2-1.5-14.7c-0.1-5.5-2.9-20.1-3.3-29.4    c-0.4-9.3-0.8-21.4-0.8-24.7c0-3.3,0-25,0.3-29.4c0.2-4.3,2.9-25,3.7-30.7c0.8-5.7,2.6-24.3,3.1-28.6c0.5-4.3-0.6-16.8,0-21.5    c1-8.2,2-11.2,2-24.5c0-4.6-0.2-27-1-30.6c-4.1-17.4-4.7,4.3-4.7,4.3s-0.1,23.7-0.4,30.4c-0.3,6.7-2.5,23.5-3.1,28.6    c-0.6,5.1-1.8,35.8-3.1,39.8c-1.3,4-2.6,38.7-3.5,42.7c-0.9,4,0.3,46.7,1.5,53.5C513.2,284.4,512.8,296.8,512.9,303z"/>
	</g>
</g>
<g>
	<line class="st22" x1="556.8" y1="121.7" x2="714.1" y2="121.7"/>
	<line class="st22" x1="713.6" y1="121.7" x2="783" y2="151.3"/>
</g>
<g id="豆荚-大">
	<g>
		<path class="st23" d="M788.8,163.2c-0.8,3-1.2,6.2-1.2,9.5c0,21.2,17.1,38.3,38.3,38.3s38.3-17.1,38.3-38.3
			c0-9.3-3.3-17.9-8.9-24.5c-8.6,3.9-19.5,7.5-31.6,10.3C810.8,161.6,798.7,163.1,788.8,163.2z"/>
		<path class="st23" d="M825.9,134.5c-17.9,0-32.9,12.2-37.1,28.8c9.8-0.1,22-1.6,34.9-4.6c12.1-2.8,23-6.4,31.6-10.3
			C848.3,139.8,837.8,134.5,825.9,134.5z"/>
	</g>
	<g>
		<g>
			<path class="st24" d="M844.6,191.8c4.2-4,5.2-9,3-17.2c-2-7.3-8.4-9.9-8.4-9.9s-1.7,1.2-0.8,2.3c1,1.1,0.6,0.7,0.2,2.6
				c-0.1,0.5,0,1.1,0.2,1.6c0.1,0.4,0.2,0.8,0.3,1.3c0.3,0.8,0.8,1.4,1.3,1.8c0.2,0.4,0.3,0.7,0.4,1.1c0,0.1,0.1,0.3,0.1,0.4
				c-0.7,1.1-0.9,3-0.2,4.7c0.5,1.2,1.2,2,2,2.4c0,0.1,0,0.2,0,0.3c0,0.6,0.1,1.1,0.1,1.5c-0.3,0.8-0.4,1.7-0.1,2.4
				c0.1,0.2,0.2,0.4,0.3,0.5c0.1,0.7,0.2,1.3,0.4,2.3c0.2,1.1,0,1.3-0.2,2.1C843.1,192.2,842.9,193.5,844.6,191.8z"/>
			<path class="st25" d="M843.5,166.2c0,0-0.9,0.3-2.5,0.7c-0.9,0.2,0.4,2.2,0.4,3c0,0.3-2.4-0.9-2-0.9c0,0-0.8,0.8-1,1.6
				c-0.2,0.8-0.3-1.6-0.7-2.1c-1.2-1.2-1-2.4-1.1-3.5c-0.1-1.1,0.2-0.6-0.7-1.8c-0.7-0.9-1-1.5-0.5-2.9c1.2-3.4,1.5-3.8,1.5-3.8
				s0.3,1,0.1,1.7c-0.7,2.3-1.2,2.7-0.3,3.7c0.9,1.1,0,1.2,2.2,1.3c1.5,0.1,2,0.9,2.8,1.8C842.8,166.4,843.5,166.2,843.5,166.2z"/>
		</g>
		<g>
			<path class="st24" d="M808,195.7c7.8,0.7,13.6-2.7,19.9-12.1c5.6-8.4,2.6-17.1,2.6-17.1s-2.8-0.6-3,1.3c-0.2,1.9-0.1,1.2-2.4,2.4
				c-0.7,0.3-1.1,0.9-1.5,1.6c-0.4,0.4-0.7,0.9-1,1.4c-0.6,1-0.7,2.1-0.6,2.9c-0.2,0.5-0.5,1-0.8,1.4c-0.1,0.1-0.2,0.3-0.3,0.4
				c-1.8,0.3-3.8,1.8-4.9,3.9c-0.8,1.5-1,3-0.6,4.1c-0.1,0.1-0.2,0.2-0.3,0.3c-0.5,0.5-1,1-1.4,1.4c-1.1,0.4-2,1.1-2.4,2
				c-0.1,0.2-0.2,0.5-0.3,0.7c-0.6,0.6-1.1,1.3-1.9,2.4c-0.9,1.2-1.3,1.2-2.3,1.7C806.3,194.5,804.8,195.4,808,195.7z"/>
			
				<ellipse transform="matrix(0.989 -0.1477 0.1477 0.989 -16.7177 124.0433)" class="st26" cx="826.7" cy="174.6" rx="3.4" ry="2"/>
			
				<ellipse transform="matrix(0.989 -0.1477 0.1477 0.989 -19.0933 122.7025)" class="st26" cx="816.5" cy="189.9" rx="3.4" ry="2"/>
			
				<ellipse transform="matrix(0.989 -0.1477 0.1477 0.989 -17.8724 123.4541)" class="st26" cx="822.1" cy="182" rx="4.7" ry="2.6"/>
			<path class="st25" d="M832.8,172c0,0-1.2-0.7-2.9-1.8c-1-0.7-1.9,2.3-2.6,3.1c-0.3,0.3-1.2-3.2-1-2.8c0,0-1.5-0.1-2.4,0.4
				c-0.9,0.5,1.3-1.6,1.4-2.6c0.1-2.3,1.5-3.2,2.6-4.2c1-1,0.8-0.3,1.2-2.3c0.3-1.4,0.7-2.3,2.5-3c4.5-1.8,5.1-1.8,5.1-1.8
				s-0.8,1.2-1.7,1.6c-2.9,1.3-3.7,1.2-4,3c-0.3,1.8-1.3,1.1,0.6,3.3c1.3,1.5,0.8,2.8,0.6,4.4C832,171.4,832.8,172,832.8,172z"/>
		</g>
	</g>
</g>
<line class="st22" x1="838.2" y1="215.7" x2="851.5" y2="261.6"/>
<g id="大豆-大" onclick="a()">
	<circle class="st27" cx="862.2" cy="305" r="38.3"/>
	<path class="st28" d="M857.6,284.7c-1.7-0.6-3.6-0.5-5.3,0.4c-12.3,6.1-13.8,3.8-15.9,10.2c-2,5.8,1.2,12.1,7,14.1
		c0.6,0.2,1.2,0.4,1.9,0.5c3.7,0.6,7.5,0,10.8-1.7c3.3-1.6,6.1-4.3,7.9-7.6c0.3-0.6,0.6-1.1,0.8-1.8
		C866.6,292.9,863.4,286.6,857.6,284.7L857.6,284.7z M855.8,304.8c-2,1-2.5,0.9-4.6,0.9c1.2-0.5,2.3-1.1,2.9-1.4
		c3.2-2,3.5-3,6.7-6.9C859.1,303.1,855.8,304.8,855.8,304.8z"/>
	<path class="st29" d="M871.6,288.7c-2.8,0-5.6,1.1-7.7,3.2c-15.2,15.2-18.5,12.5-18.5,23c0,9.6,7.8,17.4,17.4,17.4c1,0,2-0.1,3-0.3
		c5.8-1,11-3.8,15.1-7.9c4.1-4.1,6.9-9.4,7.9-15.1c0.2-1,0.3-2,0.3-3C889,296.4,881.2,288.7,871.6,288.7L871.6,288.7z M878.9,319.4
		c-2.5,2.5-3.3,2.6-6.4,3.6c1.5-1.3,2.9-2.8,3.6-3.6c3.7-4.5,3.7-6.3,6.4-13.6C883,315.3,878.9,319.4,878.9,319.4z"/>
</g>
<g id="线">
	<line class="st22" x1="325.1" y1="194.2" x2="484.3" y2="194.2"/>
	<line class="st22" x1="324.6" y1="194.2" x2="248.3" y2="151.3"/>
</g>
<g id="花-大">
	<circle class="st30" cx="200.3" cy="130.4" r="38.3"/>
	<g>
		<path class="st31" d="M206,130.5c-2,2.3-4.9,4.7-5.4,7.7c0.7,0.5,1.7,0.8,2.6,0.7c0.1-0.5,1.1-5.4,1.9-5c6.2,3.4,14.6-2,16.4-7.8
			c2.1-6.6-0.8-15.1,5-20.8c-9.2,3.2-19.7,5.5-25,14.2c-3.3,5.4-0.4,15.7,2.6,12c4-5.1,5.2-7.3,4.9-12.7c0.7,1.5,0.8,3.3,1.3,4.8
			c2.6-3.3,5.6-5.4,8.2-9.1c-4,5.8-7.3,9-10,13.8c1.7-0.2,3.8,0.2,5.4,0.4C211.3,128.5,208.6,129.6,206,130.5L206,130.5z"/>
		<path class="st31" d="M208.1,140.4c3.4-1,7.6-1.5,10-4c-0.3-0.9-1.2-1.8-2-2.3c-0.4,0.5-4.4,4.5-4.9,3.6
			c-3.8-7.2-15.2-7.2-20.6-2.8c-6.2,5-8.7,15-17.8,16.8c10.9,2.7,22.2,7,32.8,2.1c6.5-3.1,10.2-14.8,5.1-13.1
			c-7,2.3-9.6,3.7-12.7,9.1c0.3-1.9,1.3-3.6,1.8-5.4c-4.6,1.6-8.7,1.7-13.5,3.6c7.5-3,12.6-4,18.3-7c-1.8-0.9-3.5-2.5-4.9-3.8
			C201.7,139.1,205.1,139.7,208.1,140.4L208.1,140.4z"/>
		<g>
			<path class="st32" d="M222.8,147.2c0,0-1.8,1.9-6.4,0.9c-0.5-0.1-0.9-0.1-1.2-0.3l-0.8-0.5c-0.1-0.1-0.3-0.4-0.7-1l-0.1-0.2
				l-6,0.2c1.1-0.4,8.1-1.7,9.1-2.5l2-1.7l0.1-0.2l0.1-0.2c0.5-0.8,0.8-1.7,1-2.8c0.2-1,0.2-2,0-2.9c-0.1-0.8-0.4-1.5-1-2.1
				l-0.6-0.6c0.8-0.4,1.7-0.5,2.5-0.4c1,0.1,1.9,0.6,2.8,1.4c1.6,1.4,2.3,2.3,2.4,3.9C226.3,139.8,227.2,142.8,222.8,147.2z
				 M218.3,133.1l-0.8-0.7c-1.1-0.9-1.8-1.6-2.3-1.9c-0.7-0.5-1.5-1-2.2-1.3c-0.7-0.3-1.4-0.5-1.9-0.6l-2.1-0.2
				c-0.6,0.1-1.2,0.1-1.8,0.2c-0.5,0.1-1.1,0.3-1.7,0.6l-1.5,0.7l-0.9,0.7c-0.6-0.4-1.2-0.8-1.7-1l-1.1-0.5l0.4-1.7
				c0.1-0.5,0.3-0.9,0.5-1.3c0.2-0.4,0.6-0.9,1-1.3c1.1-1.1,2.9-1.9,5.3-2.5c-0.1-0.2,1.1-0.1,3.6,0.1c2.5,0.2,4.8,1.3,6.9,3.1
				c1.4,1.2,3.9,3.6,3.8,5C221.9,131.6,219.5,131.8,218.3,133.1z M218.2,140.9c-0.6,0.6-1.3,1-2,1.1c-0.7,0.2-1.3,0.2-1.7,0
				c-0.5-0.3-1-0.6-1.4-1c-0.4-0.4-0.7-0.8-0.9-1.3c-0.4-1-0.6-1.5-0.6-1.6c-0.2-1-0.1-1.8,0.4-2.6l1-1c0.5-0.5,1.1-0.8,1.7-0.9
				c-0.1,0.2-0.2,0.4-0.3,0.6c-0.3,0.6-0.4,1.3-0.2,1.9c0.2,0.8,0.7,1.6,1.5,2.3l0.3,0.3c0.3,0.2,0.5,0.4,0.8,0.5
				c0.8,0.3,1.4,0.2,2-0.2l-0.1,0.8C218.7,140.1,218.5,140.5,218.2,140.9z M216.5,136.1c0.2-0.1,0.4-0.1,0.6,0
				c0.1,0.1,0.4,0.2,0.7,0.4c0.3,0.2,0.4,0.6,0.4,1c0,0.4-0.1,0.7-0.2,0.7c-0.4,0.1-0.8-0.1-1.3-0.5c-0.2-0.2-0.4-0.4-0.6-0.7l0-0.2
				c0-0.1,0-0.2,0.1-0.3L216.5,136.1z M215.3,135.7c-0.1-0.6,0.2-1.2,0.7-1.6c0,0,0.1,0,0.2-0.1c0.1,0,0.2-0.1,0.3-0.2l0.4,0
				c0.2,0,0.4,0.1,0.7,0.3c0.2,0.2,0.4,0.3,0.4,0.3l0.2,0.3c0.5,0.6,0.7,1.3,0.7,2c-0.2-0.4-0.4-0.7-0.7-1c-0.4-0.4-0.9-0.6-1.4-0.6
				c-0.4,0-0.8,0.1-1.2,0.4L215.3,135.7z M206.1,130.3l0.7-0.3c1-0.3,2-0.5,3-0.4c1,0.1,1.9,0.3,2.7,0.6c0.8,0.3,1.6,0.7,2.2,1.2
				c0.2,0.1,0.5,0.4,1.1,0.9l-0.2,0.2c-1,0.1-1.9,0.4-2.8,1l-1.5,1.5l-0.5,1.5c-0.3,0.9-0.4,1.5-0.5,1.7l0,0.1c0,0.3,0.1,0.6,0.2,1
				c0.3,1,0.8,1.9,1.7,2.6l0.6,0.4c0.4,0.3,0.9,0.5,1.3,0.7l1,0.3c-2.2,1.3-4.3,1.9-6.5,1.7l-0.2,0c0.6-1,0.9-2.3,0.9-3.7
				c0-1.4-0.3-2.9-0.8-4.4l-0.3-0.9c-0.6-1.2-1.2-2.2-1.8-2.9l-2-1.9l1.1-0.7C205.4,130.5,205.7,130.4,206.1,130.3z M216.1,132.5
				l-0.4,0l0.2-0.2L216.1,132.5z"/>
			<path class="st33" d="M212.6,143.1c0,0.1,0,0.2,0,0.4c0,0,0,0.1-0.1,0.1c-0.2,1.1-0.6,2-1.2,2.6c-3,6.9-5.3,14.2-13.5,9.8
				l-2.8-0.8c-3.8-1.8-0.4-4.6-6.8-9.9c-1.3-1.1-1.7-2.1-1.3-2.5c4.2,0.7,8,1.1,12.2,1.2c1.4,0,2.9,0,4.5-0.1c-0.4-0.5-0.7-1-1-1.5
				c-2.4,0-4.7-0.2-7.2-0.5c-4.2-0.5-8.7-1.4-13.1-3c-4.8-2-8.5-5.3-11.6-9.6c-5.3-6.7-2.8-14.6,6.2-15.3c0.1,0.4,0.2,0.7,0.3,1.1
				l-0.3-1.1c0,0,0,0,0,0c-2.9-15.3,28.8-25.5,29.9,11.9c0.4,0.4-0.1,0.7,0.2,1.1c0,2.1,0.2,4.1,0.4,5.9c1.4,0.9,2.7,2.4,3.7,4.3
				C212.2,139.2,212.7,141.3,212.6,143.1z"/>
			<g>
				<g>
					<path class="st34" d="M191.9,103.6c-0.6,0-1,0.5-1,1c0,0.6,0.5,1,1,1c0.6,0,1-0.5,1-1C192.9,104.1,192.4,103.6,191.9,103.6z
						 M185.8,105.6c-0.6,0-1,0.5-1,1c0,0.6,0.5,1,1,1c0.6,0,1-0.5,1-1C186.8,106.1,186.4,105.6,185.8,105.6z M198,107.6
						c-0.6,0-1,0.5-1,1c0,0.6,0.5,1,1,1c0.6,0,1-0.5,1-1C199,108.1,198.5,107.6,198,107.6z M173.6,123.8c-0.6,0-1,0.5-1,1
						c0,0.6,0.5,1,1,1s1-0.5,1-1C174.6,124.2,174.2,123.8,173.6,123.8z M177.7,119.7c-0.6,0-1,0.5-1,1c0,0.6,0.5,1,1,1
						c0.6,0,1-0.5,1-1C178.7,120.2,178.2,119.7,177.7,119.7z M177.7,129.8c-0.6,0-1,0.5-1,1s0.5,1,1,1c0.6,0,1-0.5,1-1
						S178.2,129.8,177.7,129.8z"/>
				</g>
			</g>
		</g>
	</g>
</g>
<g id="线_1_">
	<line class="st22" x1="328.7" y1="248.3" x2="383.7" y2="248.3"/>
	<line class="st22" x1="328.7" y1="248.3" x2="287.1" y2="260.6"/>
</g>
<g id="叶子-大">
	<circle class="st35" cx="249.4" cy="291.8" r="38.3"/>
	<g>
		<defs>
			<circle id="SVGID_1_" cx="247.3" cy="288.7" r="38.3"/>
		</defs>
		<clipPath id="SVGID_2_">
			<use xlink:href="#SVGID_1_"  style="overflow:visible;"/>
		</clipPath>
		<path class="st36" d="M193.7,357.8c0,0,13.1-26.3,20-35c6.9-8.8,12.1-17,22.2-22.9c10-5.9,12.6-5.6,16.4-6.4
			c3.8-0.8-14.5,6.3-22.2,14.3c-8.6,9-13.8,17.9-19.3,26.5c-9.7,15-11.4,23.6-11.4,23.6l-5.7,6.4V357.8z"/>
	</g>
	<g>
		<path class="st31" d="M246,300.8c-3.4,0.7-7.5,2.1-10.7,1c-0.1-0.9,0.1-2.1,0.7-2.8c0.6,0.2,6.1,1.8,6.1,0.9
			c-0.1-7.7,10-12.8,16.9-11.5c7.9,1.5,14.9,8.8,23.9,6.3c-8.3,7-16.3,15.8-28,16.2c-7.2,0.3-16.2-8-10.8-8.8
			c7.3-1.1,10.2-1.1,15.6,2.1c-1.1-1.5-2.9-2.5-4.2-3.8c4.8-0.7,8.5-2.5,13.7-3c-8,0.8-13.1,2.2-19.5,2.2c1.2-1.5,1.8-3.7,2.5-5.4
			C251,296.9,248.4,298.9,246,300.8L246,300.8z"/>
		<path class="st37" d="M239.8,287.4c-0.9,2.6-2.5,5.7-2,8.3c0.7,0.2,1.7,0.1,2.4-0.3c-0.1-0.5-0.9-4.9-0.1-4.8
			c6.4,0.7,11.6-6.7,11.2-12.2c-0.4-6.3-5.7-12.4-2.7-19.2c-6.7,5.9-14.7,11.4-16.2,20.6c-1,5.7,4.9,13.4,6.2,9.2
			c1.7-5.6,2-7.9-0.1-12.4c1.1,1,1.7,2.5,2.7,3.6c1.1-3.7,2.9-6.5,3.8-10.4c-1.5,6.2-3.2,10.1-3.8,15.1c1.4-0.8,3.2-1.1,4.7-1.5
			C243.6,283.8,241.7,285.7,239.8,287.4L239.8,287.4z"/>
		<path class="st38" d="M247.7,290.8c-3,1.4-6.9,2.6-8.7,5.3c0.5,0.8,1.4,1.5,2.2,1.8c0.3-0.5,3.5-4.9,4-4.1
			c4.6,6,15.3,4.2,19.7-0.7c5-5.7,5.8-15.3,14.1-18.4c-10.5-0.7-21.8-2.9-30.9,3.4c-5.6,3.9-7.3,15.4-2.7,13
			c6.2-3.3,8.4-5,10.4-10.5c0,1.8-0.7,3.6-0.8,5.3c4-2.2,7.9-3,12.1-5.5c-6.5,4-11.2,5.7-16,9.4c1.8,0.5,3.6,1.8,5.1,2.7
			C253.8,291,250.7,291,247.7,290.8L247.7,290.8z"/>
	</g>
</g>

	<script type="text/javascript"> <![CDATA[



	]]> </script>
</svg>
